  0
SECTION
  2
HEADER
  9
$ACADVER
  1
AC1006
  9
$EXTMIN
 10
0.000000
 20
0.000000
 30
0.000000
  9
$EXTMAX
 10
765.000000
 20
497.000000
 30
0.000000
  0
ENDSEC
  0
SECTION
  2
ENTITIES
  0
POLYLINE
  8
0
 66
1
 70
1
  0
VERTEX
  8
0
 10
0.000000
 20
248.500000
 42
0.000000
  0
VERTEX
  8
0
 10
0.000000
 20
0.000000
 42
0.000000
  0
VERTEX
  8
0
 10
382.500000
 20
0.000000
 42
0.000000
  0
VERTEX
  8
0
 10
765.000000
 20
0.000000
 42
0.000000
  0
VERTEX
  8
0
 10
765.000000
 20
248.500000
 42
0.000000
  0
VERTEX
  8
0
 10
765.000000
 20
497.000000
 42
0.000000
  0
VERTEX
  8
0
 10
382.500000
 20
497.000000
 42
0.000000
  0
VERTEX
  8
0
 10
0.000000
 20
497.000000
 42
0.000000
  0
SEQEND
  0
POLYLINE
  8
0
 66
1
 70
1
  0
VERTEX
  8
0
 10
409.000000
 20
444.858565
 42
-0.077518
  0
VERTEX
  8
0
 10
455.937116
 20
431.509712
 42
-0.072112
  0
VERTEX
  8
0
 10
497.885228
 20
404.278645
 42
-0.071769
  0
VERTEX
  8
0
 10
530.537159
 20
366.116711
 42
-0.075521
  0
VERTEX
  8
0
 10
550.380874
 20
320.918075
 42
-0.017975
  0
VERTEX
  8
0
 10
553.219924
 20
308.626457
 42
-0.021748
  0
VERTEX
  8
0
 10
554.960230
 20
296.918094
 42
-0.020383
  0
VERTEX
  8
0
 10
555.747704
 20
284.495940
 42
-0.012953
  0
VERTEX
  8
0
 10
555.699042
 20
270.000000
 42
-0.020522
  0
VERTEX
  8
0
 10
554.351336
 20
250.860863
 42
-0.031695
  0
VERTEX
  8
0
 10
551.469966
 20
234.536520
 42
-0.031813
  0
VERTEX
  8
0
 10
546.557793
 20
218.750850
 42
-0.020877
  0
VERTEX
  8
0
 10
539.017017
 20
201.259189
 42
-0.057140
  0
VERTEX
  8
0
 10
518.567676
 20
168.853671
 42
-0.056138
  0
VERTEX
  8
0
 10
491.205798
 20
141.701643
 42
-0.056265
  0
VERTEX
  8
0
 10
458.552668
 20
121.366877
 42
-0.057915
  0
VERTEX
  8
0
 10
422.500000
 20
109.063528
 42
-0.049374
  0
VERTEX
  8
0
 10
388.719540
 20
105.178702
 42
-0.049009
  0
VERTEX
  8
0
 10
354.746395
 20
107.974414
 42
-0.049314
  0
VERTEX
  8
0
 10
322.163915
 20
117.294030
 42
-0.051320
  0
VERTEX
  8
0
 10
292.500000
 20
132.725710
 42
-0.048381
  0
VERTEX
  8
0
 10
265.725557
 20
154.329663
 42
-0.050162
  0
VERTEX
  8
0
 10
243.961652
 20
180.435445
 42
-0.050198
  0
VERTEX
  8
0
 10
227.844849
 20
210.334405
 42
-0.048583
  0
VERTEX
  8
0
 10
217.795028
 20
243.172496
 42
-0.013389
  0
VERTEX
  8
0
 10
216.571889
 20
250.166818
 42
-0.019822
  0
VERTEX
  8
0
 10
215.908910
 20
256.356027
 42
-0.013966
  0
VERTEX
  8
0
 10
215.610469
 20
263.976520
 42
-0.003443
  0
VERTEX
  8
0
 10
215.556279
 20
276.500000
 42
-0.003421
  0
VERTEX
  8
0
 10
215.672628
 20
288.876075
 42
-0.013653
  0
VERTEX
  8
0
 10
216.002853
 20
296.454258
 42
-0.019855
  0
VERTEX
  8
0
 10
216.671806
 20
302.480273
 42
-0.015216
  0
VERTEX
  8
0
 10
217.862859
 20
309.000000
 42
-0.027392
  0
VERTEX
  8
0
 10
223.390979
 20
329.298568
 42
-0.029235
  0
VERTEX
  8
0
 10
231.009474
 20
348.421839
 42
-0.029602
  0
VERTEX
  8
0
 10
240.704664
 20
366.306341
 42
-0.029680
  0
VERTEX
  8
0
 10
252.436494
 20
382.904428
 42
-0.024244
  0
VERTEX
  8
0
 10
259.853202
 20
391.307846
 42
-0.013616
  0
VERTEX
  8
0
 10
269.611955
 20
400.808141
 42
-0.013606
  0
VERTEX
  8
0
 10
279.910973
 20
409.796331
 42
-0.023451
  0
VERTEX
  8
0
 10
289.012653
 20
416.621647
 42
-0.043589
  0
VERTEX
  8
0
 10
316.689281
 20
432.081646
 42
-0.047828
  0
VERTEX
  8
0
 10
345.793018
 20
441.943552
 42
-0.047323
  0
VERTEX
  8
0
 10
376.514425
 20
446.164865
 42
-0.041106
  0
SEQEND
  0
POLYLINE
  8
0
 66
1
 70
1
  0
VERTEX
  8
0
 10
368.000000
 20
441.061743
 42
0.034595
  0
VERTEX
  8
0
 10
346.790827
 20
437.288503
 42
0.031721
  0
VERTEX
  8
0
 10
325.662125
 20
430.551930
 42
0.031574
  0
VERTEX
  8
0
 10
305.455990
 20
421.157651
 42
0.033459
  0
VERTEX
  8
0
 10
287.000000
 20
409.452150
 42
0.023348
  0
VERTEX
  8
0
 10
280.188924
 20
403.957833
 42
0.010672
  0
VERTEX
  8
0
 10
271.803193
 20
396.195241
 42
0.010683
  0
VERTEX
  8
0
 10
263.541568
 20
387.864940
 42
0.018068
  0
VERTEX
  8
0
 10
257.032823
 20
380.500000
 42
0.030402
  0
VERTEX
  8
0
 10
245.451379
 20
364.510075
 42
0.030191
  0
VERTEX
  8
0
 10
235.865027
 20
347.197571
 42
0.029728
  0
VERTEX
  8
0
 10
228.307197
 20
328.594357
 42
0.027542
  0
VERTEX
  8
0
 10
222.785177
 20
308.749033
 42
0.015941
  0
VERTEX
  8
0
 10
221.575885
 20
302.266972
 42
0.021332
  0
VERTEX
  8
0
 10
220.919862
 20
296.321856
 42
0.013918
  0
VERTEX
  8
0
 10
220.618511
 20
288.679044
 42
0.003036
  0
VERTEX
  8
0
 10
220.546006
 20
275.500000
 42
0.002806
  0
VERTEX
  8
0
 10
220.633270
 20
261.384686
 42
0.017195
  0
VERTEX
  8
0
 10
220.969367
 20
254.111818
 42
0.025826
  0
VERTEX
  8
0
 10
221.757303
 20
248.186676
 42
0.011599
  0
VERTEX
  8
0
 10
223.371925
 20
240.500000
 42
0.058344
  0
VERTEX
  8
0
 10
237.623294
 20
201.066642
 42
0.062448
  0
VERTEX
  8
0
 10
260.357009
 20
166.972313
 42
0.062971
  0
VERTEX
  8
0
 10
290.614734
 20
139.774043
 42
0.061027
  0
VERTEX
  8
0
 10
327.000000
 20
120.621934
 42
0.043687
  0
VERTEX
  8
0
 10
353.822130
 20
113.045462
 42
0.041401
  0
VERTEX
  8
0
 10
382.043637
 20
110.064847
 42
0.041487
  0
VERTEX
  8
0
 10
410.311788
 20
111.775967
 42
0.044305
  0
VERTEX
  8
0
 10
437.272554
 20
118.143765
 42
0.073680
  0
VERTEX
  8
0
 10
480.828153
 20
140.136306
 42
0.073141
  0
VERTEX
  8
0
 10
516.259742
 20
173.859667
 42
0.073502
  0
VERTEX
  8
0
 10
540.348487
 20
216.193127
 42
0.075610
  0
VERTEX
  8
0
 10
550.860090
 20
263.275639
 42
0.032508
  0
VERTEX
  8
0
 10
550.947448
 20
286.697453
 42
0.034677
  0
VERTEX
  8
0
 10
547.962672
 20
309.423396
 42
0.035128
  0
VERTEX
  8
0
 10
541.919212
 20
331.247794
 42
0.035265
  0
VERTEX
  8
0
 10
532.886128
 20
351.981693
 42
0.021433
  0
VERTEX
  8
0
 10
526.223325
 20
363.505174
 42
0.020487
  0
VERTEX
  8
0
 10
518.503639
 20
374.596142
 42
0.020025
  0
VERTEX
  8
0
 10
509.719861
 20
385.258931
 42
0.018406
  0
VERTEX
  8
0
 10
499.870038
 20
395.500000
 42
0.044095
  0
VERTEX
  8
0
 10
475.942394
 20
414.846508
 42
0.048308
  0
VERTEX
  8
0
 10
449.686214
 20
429.028920
 42
0.048391
  0
VERTEX
  8
0
 10
421.237295
 20
437.891772
 42
0.044520
  0
VERTEX
  8
0
 10
390.800837
 20
441.448174
 42
0.005781
  0
VERTEX
  8
0
 10
384.392755
 20
441.549277
 42
0.005290
  0
VERTEX
  8
0
 10
377.791496
 20
441.507251
 42
0.005295
  0
VERTEX
  8
0
 10
371.898628
 20
441.344944
 42
0.017196
  0
SEQEND
  0
POLYLINE
  8
0
 66
1
 70
1
  0
VERTEX
  8
0
 10
404.500000
 20
434.957578
 42
-0.056769
  0
VERTEX
  8
0
 10
438.082962
 20
427.203113
 42
-0.053922
  0
VERTEX
  8
0
 10
469.689897
 20
412.009836
 42
-0.053735
  0
VERTEX
  8
0
 10
497.416255
 20
390.349148
 42
-0.055561
  0
VERTEX
  8
0
 10
519.541115
 20
363.500000
 42
-0.053094
  0
VERTEX
  8
0
 10
535.269273
 20
332.699977
 42
-0.053983
  0
VERTEX
  8
0
 10
544.050107
 20
299.449215
 42
-0.054198
  0
VERTEX
  8
0
 10
545.490040
 20
265.212721
 42
-0.054349
  0
VERTEX
  8
0
 10
539.534651
 20
231.500000
 42
-0.002861
  0
VERTEX
  8
0
 10
538.563482
 20
228.235539
 42
-0.003023
  0
VERTEX
  8
0
 10
537.572415
 20
225.042187
 42
-0.002887
  0
VERTEX
  8
0
 10
536.685867
 20
222.300517
 42
-0.013725
  0
VERTEX
  8
0
 10
536.126954
 20
220.750000
 42
0.000000
  0
VERTEX
  8
0
 10
535.049502
 20
218.000000
 42
0.000000
  0
VERTEX
  8
0
 10
510.007905
 20
218.000000
 42
0.000000
  0
VERTEX
  8
0
 10
484.966308
 20
218.000000
 42
0.000000
  0
VERTEX
  8
0
 10
487.608735
 20
223.214578
 42
0.024995
  0
VERTEX
  8
0
 10
492.753600
 20
234.765024
 42
0.030413
  0
VERTEX
  8
0
 10
496.346130
 20
246.047892
 42
0.029852
  0
VERTEX
  8
0
 10
498.590084
 20
257.858103
 42
0.022647
  0
VERTEX
  8
0
 10
499.680600
 20
271.000000
 42
0.016106
  0
VERTEX
  8
0
 10
499.740952
 20
282.396917
 42
0.025116
  0
VERTEX
  8
0
 10
498.984578
 20
292.183278
 42
0.026284
  0
VERTEX
  8
0
 10
497.287627
 20
301.513344
 42
0.020125
  0
VERTEX
  8
0
 10
494.494548
 20
311.500000
 42
0.064220
  0
VERTEX
  8
0
 10
482.486278
 20
336.926478
 42
0.060702
  0
VERTEX
  8
0
 10
464.226887
 20
359.016687
 42
0.060873
  0
VERTEX
  8
0
 10
441.251554
 20
376.023239
 42
0.065312
  0
VERTEX
  8
0
 10
415.383693
 20
386.510628
 42
0.073895
  0
VERTEX
  8
0
 10
380.420028
 20
390.273500
 42
0.076929
  0
VERTEX
  8
0
 10
346.381708
 20
383.590613
 42
0.076992
  0
VERTEX
  8
0
 10
315.978895
 20
366.937895
 42
0.074193
  0
VERTEX
  8
0
 10
291.594981
 20
341.685307
 42
0.029501
  0
VERTEX
  8
0
 10
286.670209
 20
333.844129
 42
0.017731
  0
VERTEX
  8
0
 10
281.727383
 20
324.025092
 42
0.017638
  0
VERTEX
  8
0
 10
277.437015
 20
313.752401
 42
0.026522
  0
VERTEX
  8
0
 10
274.500506
 20
304.500000
 42
0.031304
  0
VERTEX
  8
0
 10
272.378618
 20
293.567307
 42
0.020804
  0
VERTEX
  8
0
 10
271.261951
 20
280.839949
 42
0.020894
  0
VERTEX
  8
0
 10
271.209696
 20
268.186641
 42
0.033927
  0
VERTEX
  8
0
 10
272.341131
 20
257.500000
 42
0.017611
  0
VERTEX
  8
0
 10
274.093339
 20
249.219412
 42
0.016556
  0
VERTEX
  8
0
 10
276.455009
 20
240.908172
 42
0.016829
  0
VERTEX
  8
0
 10
279.312669
 20
232.921742
 42
0.020121
  0
VERTEX
  8
0
 10
282.552793
 20
225.617396
 42
-0.001642
  0
VERTEX
  8
0
 10
283.874195
 20
222.912756
 42
-0.002597
  0
VERTEX
  8
0
 10
284.987383
 20
220.584443
 42
-0.000611
  0
VERTEX
  8
0
 10
285.948761
 20
218.540045
 42
-0.110027
  0
VERTEX
  8
0
 10
286.000000
 20
218.310018
 42
-0.410407
  0
VERTEX
  8
0
 10
285.874393
 20
218.182766
 42
-0.000152
  0
VERTEX
  8
0
 10
278.660192
 20
218.091068
 42
-0.001939
  0
VERTEX
  8
0
 10
270.594533
 20
218.022278
 42
-0.001163
  0
VERTEX
  8
0
 10
261.013420
 20
218.000000
 42
0.000000
  0
VERTEX
  8
0
 10
236.026840
 20
218.000000
 42
0.000000
  0
VERTEX
  8
0
 10
234.670778
 20
221.250000
 42
-0.030882
  0
VERTEX
  8
0
 10
233.014652
 20
226.029732
 42
-0.005847
  0
VERTEX
  8
0
 10
230.640868
 20
234.949198
 42
-0.006676
  0
VERTEX
  8
0
 10
228.378268
 20
244.396843
 42
-0.013003
  0
VERTEX
  8
0
 10
226.870991
 20
252.000000
 42
-0.023252
  0
VERTEX
  8
0
 10
226.364525
 20
256.089848
 42
-0.006978
  0
VERTEX
  8
0
 10
225.970907
 20
262.353725
 42
-0.006806
  0
VERTEX
  8
0
 10
225.716435
 20
269.582420
 42
-0.006310
  0
VERTEX
  8
0
 10
225.650005
 20
277.000000
 42
-0.005422
  0
VERTEX
  8
0
 10
225.793625
 20
286.898425
 42
-0.016142
  0
VERTEX
  8
0
 10
226.184207
 20
293.667901
 42
-0.018841
  0
VERTEX
  8
0
 10
226.971866
 20
299.807566
 42
-0.009877
  0
VERTEX
  8
0
 10
228.388913
 20
307.378673
 42
-0.051360
  0
VERTEX
  8
0
 10
238.596146
 20
339.530260
 42
-0.052275
  0
VERTEX
  8
0
 10
255.097658
 20
368.722452
 42
-0.052159
  0
VERTEX
  8
0
 10
277.333176
 20
393.913021
 42
-0.050699
  0
VERTEX
  8
0
 10
304.500000
 20
414.228341
 42
-0.033104
  0
VERTEX
  8
0
 10
318.538332
 20
421.440670
 42
-0.023148
  0
VERTEX
  8
0
 10
335.181159
 20
427.745424
 42
-0.022909
  0
VERTEX
  8
0
 10
352.600031
 20
432.566689
 42
-0.029391
  0
VERTEX
  8
0
 10
369.000000
 20
435.305102
 42
-0.021810
  0
VERTEX
  8
0
 10
376.063263
 20
435.751193
 42
-0.007312
  0
VERTEX
  8
0
 10
386.403381
 20
435.801191
 42
-0.007441
  0
VERTEX
  8
0
 10
396.864894
 20
435.543048
 42
-0.018492
  0
SEQEND
  0
POLYLINE
  8
0
 66
1
 70
1
  0
VERTEX
  8
0
 10
407.000000
 20
382.324751
 42
-0.055607
  0
VERTEX
  8
0
 10
429.791837
 20
375.045935
 42
-0.055246
  0
VERTEX
  8
0
 10
450.473280
 20
362.911566
 42
-0.055219
  0
VERTEX
  8
0
 10
468.004375
 20
346.536705
 42
-0.055448
  0
VERTEX
  8
0
 10
481.498708
 20
326.743244
 42
-0.028692
  0
VERTEX
  8
0
 10
487.045161
 20
314.656730
 42
-0.032562
  0
VERTEX
  8
0
 10
490.906564
 20
302.508502
 42
-0.032334
  0
VERTEX
  8
0
 10
493.177499
 20
289.886355
 42
-0.027564
  0
VERTEX
  8
0
 10
493.965112
 20
276.380990
 42
-0.026247
  0
VERTEX
  8
0
 10
493.301213
 20
262.937697
 42
-0.032515
  0
VERTEX
  8
0
 10
491.220729
 20
250.583318
 42
-0.032489
  0
VERTEX
  8
0
 10
487.554297
 20
238.594922
 42
-0.026136
  0
VERTEX
  8
0
 10
482.129794
 20
226.250000
 42
0.000000
  0
VERTEX
  8
0
 10
477.977679
 20
218.000000
 42
0.000000
  0
VERTEX
  8
0
 10
472.920745
 20
218.000000
 42
0.000000
  0
VERTEX
  8
0
 10
467.863812
 20
218.000000
 42
0.000000
  0
VERTEX
  8
0
 10
469.806400
 20
220.750000
 42
0.031927
  0
VERTEX
  8
0
 10
472.518745
 20
225.162327
 42
0.011794
  0
VERTEX
  8
0
 10
475.785692
 20
231.694509
 42
0.011887
  0
VERTEX
  8
0
 10
478.922162
 20
238.786560
 42
0.017533
  0
VERTEX
  8
0
 10
481.304484
 20
245.162982
 42
0.025075
  0
VERTEX
  8
0
 10
483.657501
 20
253.587928
 42
0.025266
  0
VERTEX
  8
0
 10
485.148214
 20
262.184957
 42
0.023859
  0
VERTEX
  8
0
 10
485.821299
 20
271.330892
 42
0.017987
  0
VERTEX
  8
0
 10
485.718287
 20
281.410743
 42
0.067199
  0
VERTEX
  8
0
 10
480.953726
 20
307.536685
 42
0.068017
  0
VERTEX
  8
0
 10
469.439905
 20
331.347306
 42
0.067709
  0
VERTEX
  8
0
 10
451.903101
 20
351.283958
 42
0.065595
  0
VERTEX
  8
0
 10
429.500000
 20
366.062422
 42
0.018165
  0
VERTEX
  8
0
 10
418.168703
 20
371.065799
 42
0.041496
  0
VERTEX
  8
0
 10
409.239870
 20
373.793968
 42
0.038994
  0
VERTEX
  8
0
 10
399.650271
 20
375.102782
 42
0.014391
  0
VERTEX
  8
0
 10
386.000000
 20
375.497611
 42
0.004319
  0
VERTEX
  8
0
 10
376.076932
 20
375.413244
 42
0.017850
  0
VERTEX
  8
0
 10
370.086289
 20
375.096424
 42
0.025960
  0
VERTEX
  8
0
 10
365.314561
 20
374.421840
 42
0.018599
  0
VERTEX
  8
0
 10
360.066832
 20
373.195652
 42
0.077176
  0
VERTEX
  8
0
 10
331.025665
 20
360.199339
 42
0.078927
  0
VERTEX
  8
0
 10
307.546826
 20
339.087714
 42
0.079177
  0
VERTEX
  8
0
 10
291.820377
 20
311.803699
 42
0.078381
  0
VERTEX
  8
0
 10
285.281883
 20
280.887246
 42
0.039758
  0
VERTEX
  8
0
 10
285.713159
 20
265.207601
 42
0.037929
  0
VERTEX
  8
0
 10
288.609797
 20
249.538060
 42
0.038299
  0
VERTEX
  8
0
 10
293.799724
 20
234.638109
 42
0.042563
  0
VERTEX
  8
0
 10
301.058336
 20
221.250000
 42
0.000000
  0
VERTEX
  8
0
 10
303.196403
 20
218.000000
 42
0.000000
  0
VERTEX
  8
0
 10
298.115952
 20
218.000000
 42
0.000000
  0
VERTEX
  8
0
 10
293.035501
 20
218.000000
 42
0.000000
  0
VERTEX
  8
0
 10
288.017610
 20
228.273484
 42
-0.013927
  0
VERTEX
  8
0
 10
285.900835
 20
232.931998
 42
-0.008869
  0
VERTEX
  8
0
 10
283.687168
 20
238.459734
 42
-0.008909
  0
VERTEX
  8
0
 10
281.707129
 20
243.963347
 42
-0.016332
  0
VERTEX
  8
0
 10
280.322080
 20
248.523484
 42
-0.013734
  0
VERTEX
  8
0
 10
278.852031
 20
254.670235
 42
-0.026666
  0
VERTEX
  8
0
 10
278.078039
 20
259.657507
 42
-0.019841
  0
VERTEX
  8
0
 10
277.717150
 20
265.569241
 42
-0.004638
  0
VERTEX
  8
0
 10
277.597782
 20
275.500000
 42
-0.015315
  0
VERTEX
  8
0
 10
277.963711
 20
288.619881
 42
-0.032748
  0
VERTEX
  8
0
 10
279.216538
 20
298.672658
 42
-0.034736
  0
VERTEX
  8
0
 10
281.713414
 20
308.100230
 42
-0.019515
  0
VERTEX
  8
0
 10
285.970264
 20
319.161466
 42
-0.037358
  0
VERTEX
  8
0
 10
292.362978
 20
331.408438
 42
-0.029998
  0
VERTEX
  8
0
 10
300.950999
 20
343.547067
 42
-0.029757
  0
VERTEX
  8
0
 10
311.020794
 20
354.681914
 42
-0.034843
  0
VERTEX
  8
0
 10
321.853241
 20
363.925643
 42
-0.055062
  0
VERTEX
  8
0
 10
340.790390
 20
374.938897
 42
-0.051026
  0
VERTEX
  8
0
 10
362.161336
 20
381.897388
 42
-0.050600
  0
VERTEX
  8
0
 10
384.677224
 20
384.422945
 42
-0.052200
  0
SEQEND
  0
POLYLINE
  8
0
 66
1
 70
1
  0
VERTEX
  8
0
 10
394.147448
 20
364.639500
 42
-0.060092
  0
VERTEX
  8
0
 10
402.052735
 20
361.743037
 42
-0.056355
  0
VERTEX
  8
0
 10
409.231075
 20
357.000545
 42
-0.055444
  0
VERTEX
  8
0
 10
415.270739
 20
350.691575
 42
-0.054509
  0
VERTEX
  8
0
 10
419.816326
 20
343.175146
 42
-0.023230
  0
VERTEX
  8
0
 10
421.197342
 20
339.801509
 42
-0.040821
  0
VERTEX
  8
0
 10
421.973232
 20
336.890691
 42
-0.033461
  0
VERTEX
  8
0
 10
422.352174
 20
333.521558
 42
-0.010816
  0
VERTEX
  8
0
 10
422.470086
 20
328.500000
 42
-0.011480
  0
VERTEX
  8
0
 10
422.364835
 20
323.515327
 42
-0.031425
  0
VERTEX
  8
0
 10
421.989127
 20
320.014125
 42
-0.036463
  0
VERTEX
  8
0
 10
421.216529
 20
316.892487
 42
-0.020596
  0
VERTEX
  8
0
 10
419.854363
 20
313.237049
 42
0.000000
  0
VERTEX
  8
0
 10
417.222021
 20
306.974097
 42
0.000000
  0
VERTEX
  8
0
 10
420.361010
 20
308.864948
 42
-0.081494
  0
VERTEX
  8
0
 10
427.407705
 20
311.675697
 42
-0.045271
  0
VERTEX
  8
0
 10
436.608759
 20
312.845199
 42
-0.045118
  0
VERTEX
  8
0
 10
445.938171
 20
312.338791
 42
-0.076760
  0
VERTEX
  8
0
 10
453.390964
 20
310.052783
 42
-0.047495
  0
VERTEX
  8
0
 10
458.573042
 20
306.905785
 42
-0.033140
  0
VERTEX
  8
0
 10
463.776800
 20
302.460682
 42
-0.033222
  0
VERTEX
  8
0
 10
468.328724
 20
297.386413
 42
-0.048986
  0
VERTEX
  8
0
 10
471.540265
 20
292.341343
 42
-0.021616
  0
VERTEX
  8
0
 10
473.206778
 20
288.666538
 42
-0.050883
  0
VERTEX
  8
0
 10
474.040451
 20
285.776664
 42
-0.037381
  0
VERTEX
  8
0
 10
474.406609
 20
282.283816
 42
-0.007431
  0
VERTEX
  8
0
 10
474.500000
 20
276.000000
 42
-0.007826
  0
VERTEX
  8
0
 10
474.405778
 20
269.980823
 42
-0.032251
  0
VERTEX
  8
0
 10
474.057467
 20
266.355507
 42
-0.044380
  0
VERTEX
  8
0
 10
473.306651
 20
263.402302
 42
-0.025481
  0
VERTEX
  8
0
 10
471.913622
 20
260.000000
 42
-0.030397
  0
VERTEX
  8
0
 10
470.570730
 20
257.543840
 42
-0.016493
  0
VERTEX
  8
0
 10
468.643617
 20
254.690998
 42
-0.016377
  0
VERTEX
  8
0
 10
466.483999
 20
251.907387
 42
-0.024844
  0
VERTEX
  8
0
 10
464.413622
 20
249.650205
 42
-0.079671
  0
VERTEX
  8
0
 10
454.032608
 20
242.241396
 42
-0.089655
  0
VERTEX
  8
0
 10
442.266986
 20
238.832469
 42
-0.086191
  0
VERTEX
  8
0
 10
429.675865
 20
239.699798
 42
-0.067366
  0
VERTEX
  8
0
 10
416.904764
 20
244.730704
 42
0.700702
  0
VERTEX
  8
0
 10
416.785366
 20
244.627537
 42
0.007923
  0
VERTEX
  8
0
 10
417.339261
 20
243.240950
 42
0.010541
  0
VERTEX
  8
0
 10
418.145018
 20
241.421867
 42
0.005526
  0
VERTEX
  8
0
 10
419.219767
 20
239.191882
 42
-0.023356
  0
VERTEX
  8
0
 10
420.615785
 20
236.010032
 42
-0.028600
  0
VERTEX
  8
0
 10
421.604960
 20
232.917399
 42
-0.026933
  0
VERTEX
  8
0
 10
422.275738
 20
229.583164
 42
-0.017299
  0
VERTEX
  8
0
 10
422.709342
 20
225.660137
 42
-0.004580
  0
VERTEX
  8
0
 10
423.031587
 20
220.808759
 42
-0.064765
  0
VERTEX
  8
0
 10
422.906259
 20
219.075523
 42
-0.223385
  0
VERTEX
  8
0
 10
422.323804
 20
218.294993
 42
-0.123157
  0
VERTEX
  8
0
 10
421.144338
 20
218.000000
 42
-0.079602
  0
VERTEX
  8
0
 10
420.021354
 20
218.179923
 42
-0.191228
  0
VERTEX
  8
0
 10
419.385691
 20
218.710606
 42
-0.107404
  0
VERTEX
  8
0
 10
419.075361
 20
219.776621
 42
-0.017326
  0
VERTEX
  8
0
 10
419.000000
 20
221.950779
 42
0.035550
  0
VERTEX
  8
0
 10
418.643344
 20
226.960661
 42
0.033966
  0
VERTEX
  8
0
 10
417.580008
 20
231.948370
 42
0.034161
  0
VERTEX
  8
0
 10
415.859396
 20
236.717474
 42
0.037020
  0
VERTEX
  8
0
 10
413.542981
 20
241.075498
 42
-0.015987
  0
VERTEX
  8
0
 10
411.345512
 20
244.820945
 42
-0.112962
  0
VERTEX
  8
0
 10
410.778925
 20
246.839532
 42
-0.199131
  0
VERTEX
  8
0
 10
411.316359
 20
248.337612
 42
-0.068854
  0
VERTEX
  8
0
 10
413.116033
 20
249.840391
 42
-0.068362
  0
VERTEX
  8
0
 10
414.396208
 20
250.414749
 42
-0.126627
  0
VERTEX
  8
0
 10
415.527585
 20
250.452449
 42
-0.077234
  0
VERTEX
  8
0
 10
416.896762
 20
249.917036
 42
-0.014420
  0
VERTEX
  8
0
 10
419.194378
 20
248.490065
 42
0.032991
  0
VERTEX
  8
0
 10
423.636849
 20
245.954459
 42
0.042501
  0
VERTEX
  8
0
 10
428.020963
 20
244.265426
 42
0.041473
  0
VERTEX
  8
0
 10
432.713507
 20
243.314748
 42
0.029255
  0
VERTEX
  8
0
 10
438.088214
 20
243.000000
 42
0.089589
  0
VERTEX
  8
0
 10
450.506696
 20
245.243118
 42
0.099016
  0
VERTEX
  8
0
 10
460.870881
 20
251.665969
 42
0.099764
  0
VERTEX
  8
0
 10
467.912625
 20
261.534897
 42
0.092351
  0
VERTEX
  8
0
 10
470.832044
 20
273.637630
 42
0.036026
  0
VERTEX
  8
0
 10
470.683765
 20
281.239866
 42
0.064923
  0
VERTEX
  8
0
 10
469.318523
 20
287.311188
 42
0.065629
  0
VERTEX
  8
0
 10
466.454948
 20
292.785876
 42
0.037619
  0
VERTEX
  8
0
 10
461.713527
 20
298.551897
 42
0.014080
  0
VERTEX
  8
0
 10
458.334713
 20
301.889364
 42
0.033512
  0
VERTEX
  8
0
 10
455.600156
 20
304.119230
 42
0.040241
  0
VERTEX
  8
0
 10
452.920183
 20
305.713494
 42
0.030917
  0
VERTEX
  8
0
 10
449.774983
 20
307.022526
 42
0.056705
  0
VERTEX
  8
0
 10
442.146029
 20
308.722825
 42
0.055355
  0
VERTEX
  8
0
 10
434.266282
 20
308.686613
 42
0.056074
  0
VERTEX
  8
0
 10
426.682167
 20
306.933043
 42
0.061415
  0
VERTEX
  8
0
 10
419.924386
 20
303.568659
 42
-0.024531
  0
VERTEX
  8
0
 10
416.781698
 20
301.703790
 42
-0.109386
  0
VERTEX
  8
0
 10
414.726801
 20
301.138191
 42
-0.170596
  0
VERTEX
  8
0
 10
413.122931
 20
301.612008
 42
-0.083844
  0
VERTEX
  8
0
 10
411.609697
 20
303.146848
 42
-0.059419
  0
VERTEX
  8
0
 10
410.877664
 20
304.511651
 42
-0.149821
  0
VERTEX
  8
0
 10
410.792749
 20
305.624033
 42
-0.084431
  0
VERTEX
  8
0
 10
411.348724
 20
306.977722
 42
-0.011118
  0
VERTEX
  8
0
 10
413.057460
 20
309.583515
 42
0.032499
  0
VERTEX
  8
0
 10
414.304316
 20
311.674646
 42
0.016333
  0
VERTEX
  8
0
 10
415.614317
 20
314.457076
 42
0.016147
  0
VERTEX
  8
0
 10
416.786175
 20
317.433539
 42
0.023001
  0
VERTEX
  8
0
 10
417.617032
 20
320.150360
 42
0.065061
  0
VERTEX
  8
0
 10
418.711186
 20
329.159713
 42
0.073087
  0
VERTEX
  8
0
 10
417.364260
 20
337.779914
 42
0.071996
  0
VERTEX
  8
0
 10
413.565970
 20
345.751426
 42
0.060556
  0
VERTEX
  8
0
 10
407.467305
 20
352.855887
 42
0.091065
  0
VERTEX
  8
0
 10
397.225629
 20
359.260322
 42
0.094432
  0
VERTEX
  8
0
 10
385.508158
 20
361.500490
 42
0.094491
  0
VERTEX
  8
0
 10
373.793974
 20
359.274014
 42
0.091307
  0
VERTEX
  8
0
 10
363.561332
 20
352.882059
 42
0.081232
  0
VERTEX
  8
0
 10
356.251817
 20
343.622084
 42
0.091580
  0
VERTEX
  8
0
 10
352.652655
 20
332.885993
 42
0.091806
  0
VERTEX
  8
0
 10
353.130408
 20
321.594190
 42
0.082087
  0
VERTEX
  8
0
 10
357.586109
 20
310.729485
 42
-0.006521
  0
VERTEX
  8
0
 10
359.812046
 20
307.015682
 42
-0.073328
  0
VERTEX
  8
0
 10
360.448894
 20
305.423629
 42
-0.170965
  0
VERTEX
  8
0
 10
360.326607
 20
304.257995
 42
-0.073226
  0
VERTEX
  8
0
 10
359.444286
 20
302.938437
 42
-0.078620
  0
VERTEX
  8
0
 10
357.903960
 20
301.697121
 42
-0.092321
  0
VERTEX
  8
0
 10
356.136940
 20
301.077465
 42
-0.114063
  0
VERTEX
  8
0
 10
354.551846
 20
301.194954
 42
-0.180960
  0
VERTEX
  8
0
 10
353.488248
 20
302.019016
 42
0.136615
  0
VERTEX
  8
0
 10
351.210115
 20
304.122977
 42
0.031406
  0
VERTEX
  8
0
 10
346.367155
 20
306.235554
 42
0.032134
  0
VERTEX
  8
0
 10
340.632317
 20
307.911339
 42
0.038635
  0
VERTEX
  8
0
 10
335.072649
 20
308.710805
 42
0.043991
  0
VERTEX
  8
0
 10
327.719006
 20
308.546505
 42
0.063939
  0
VERTEX
  8
0
 10
321.420154
 20
307.018625
 42
0.063205
  0
VERTEX
  8
0
 10
315.659412
 20
303.931717
 42
0.041834
  0
VERTEX
  8
0
 10
309.920000
 20
299.080000
 42
0.042003
  0
VERTEX
  8
0
 10
305.101263
 20
293.375707
 42
0.062435
  0
VERTEX
  8
0
 10
302.011988
 20
287.622438
 42
0.063051
  0
VERTEX
  8
0
 10
300.457331
 20
281.327719
 42
0.043854
  0
VERTEX
  8
0
 10
300.248103
 20
274.000000
 42
0.036725
  0
VERTEX
  8
0
 10
301.104585
 20
267.575051
 42
0.052742
  0
VERTEX
  8
0
 10
302.862018
 20
262.113650
 42
0.053783
  0
VERTEX
  8
0
 10
305.691506
 20
257.219348
 42
0.040240
  0
VERTEX
  8
0
 10
309.764560
 20
252.500476
 42
0.036525
  0
VERTEX
  8
0
 10
314.639109
 20
248.350611
 42
0.055478
  0
VERTEX
  8
0
 10
319.459272
 20
245.581750
 42
0.055149
  0
VERTEX
  8
0
 10
324.791774
 20
243.929998
 42
0.035585
  0
VERTEX
  8
0
 10
331.219227
 20
243.161158
 42
0.030817
  0
VERTEX
  8
0
 10
337.292965
 20
243.244387
 42
0.044354
  0
VERTEX
  8
0
 10
342.594685
 20
244.121574
 42
0.047023
  0
VERTEX
  8
0
 10
347.419881
 20
245.864309
 42
0.041384
  0
VERTEX
  8
0
 10
352.058311
 20
248.540409
 42
-0.039442
  0
VERTEX
  8
0
 10
354.701400
 20
250.079009
 42
-0.131866
  0
VERTEX
  8
0
 10
356.655746
 20
250.446988
 42
-0.164378
  0
VERTEX
  8
0
 10
358.273196
 20
249.759415
 42
-0.071309
  0
VERTEX
  8
0
 10
359.799082
 20
247.950113
 42
-0.065002
  0
VERTEX
  8
0
 10
360.349767
 20
246.744364
 42
-0.133073
  0
VERTEX
  8
0
 10
360.384844
 20
245.713435
 42
-0.087518
  0
VERTEX
  8
0
 10
359.877049
 20
244.529492
 42
-0.017962
  0
VERTEX
  8
0
 10
358.558509
 20
242.665597
 42
0.035880
  0
VERTEX
  8
0
 10
356.121402
 20
238.944749
 42
0.042862
  0
VERTEX
  8
0
 10
354.403258
 20
235.122753
 42
0.038356
  0
VERTEX
  8
0
 10
353.233235
 20
230.726765
 42
0.021311
  0
VERTEX
  8
0
 10
352.454170
 20
225.231677
 42
-0.007438
  0
VERTEX
  8
0
 10
351.985446
 20
221.104856
 42
-0.058318
  0
VERTEX
  8
0
 10
351.518834
 20
219.234407
 42
-0.153294
  0
VERTEX
  8
0
 10
350.816134
 20
218.338644
 42
-0.151487
  0
VERTEX
  8
0
 10
349.724054
 20
218.000000
 42
-0.142880
  0
VERTEX
  8
0
 10
348.639033
 20
218.316518
 42
-0.209874
  0
VERTEX
  8
0
 10
348.094595
 20
219.130755
 42
-0.060006
  0
VERTEX
  8
0
 10
347.994248
 20
220.928424
 42
-0.004643
  0
VERTEX
  8
0
 10
348.348749
 20
225.750000
 42
-0.017220
  0
VERTEX
  8
0
 10
348.808290
 20
229.655889
 42
-0.025254
  0
VERTEX
  8
0
 10
349.502339
 20
233.044058
 42
-0.026962
  0
VERTEX
  8
0
 10
350.491714
 20
236.170765
 42
-0.024398
  0
VERTEX
  8
0
 10
351.840721
 20
239.281745
 42
0.005636
  0
VERTEX
  8
0
 10
352.892280
 20
241.477279
 42
0.010773
  0
VERTEX
  8
0
 10
353.678508
 20
243.267347
 42
0.008250
  0
VERTEX
  8
0
 10
354.215192
 20
244.627566
 42
0.698879
  0
VERTEX
  8
0
 10
354.095236
 20
244.730704
 42
-0.032923
  0
VERTEX
  8
0
 10
347.410116
 20
241.551007
 42
-0.043856
  0
VERTEX
  8
0
 10
340.968872
 20
239.625414
 42
-0.044490
  0
VERTEX
  8
0
 10
334.364834
 20
238.869849
 42
-0.035385
  0
VERTEX
  8
0
 10
327.194089
 20
239.198125
 42
-0.071285
  0
VERTEX
  8
0
 10
318.919242
 20
241.388945
 42
-0.059431
  0
VERTEX
  8
0
 10
311.018422
 20
245.911278
 42
-0.058010
  0
VERTEX
  8
0
 10
304.226751
 20
252.295456
 42
-0.061052
  0
VERTEX
  8
0
 10
299.217544
 20
259.966667
 42
-0.024505
  0
VERTEX
  8
0
 10
297.726802
 20
263.419966
 42
-0.047692
  0
VERTEX
  8
0
 10
296.946449
 20
266.315945
 42
-0.034402
  0
VERTEX
  8
0
 10
296.593012
 20
269.869984
 42
-0.007586
  0
VERTEX
  8
0
 10
296.500000
 20
276.000000
 42
-0.007215
  0
VERTEX
  8
0
 10
296.589975
 20
282.235312
 42
-0.036734
  0
VERTEX
  8
0
 10
296.944114
 20
285.685251
 42
-0.052355
  0
VERTEX
  8
0
 10
297.744041
 20
288.463517
 42
-0.024956
  0
VERTEX
  8
0
 10
299.312560
 20
291.840213
 42
-0.035089
  0
VERTEX
  8
0
 10
302.602496
 20
297.147580
 42
-0.037661
  0
VERTEX
  8
0
 10
306.532669
 20
301.810362
 42
-0.037934
  0
VERTEX
  8
0
 10
311.089853
 20
305.801936
 42
-0.036666
  0
VERTEX
  8
0
 10
316.247905
 20
309.109558
 42
-0.017859
  0
VERTEX
  8
0
 10
320.254346
 20
311.100481
 42
-0.056506
  0
VERTEX
  8
0
 10
323.100874
 20
312.020416
 42
-0.042815
  0
VERTEX
  8
0
 10
326.472612
 20
312.406858
 42
-0.007134
  0
VERTEX
  8
0
 10
333.000000
 20
312.500000
 42
-0.007213
  0
VERTEX
  8
0
 10
339.200585
 20
312.410551
 42
-0.036108
  0
VERTEX
  8
0
 10
342.655287
 20
312.060315
 42
-0.051957
  0
VERTEX
  8
0
 10
345.418660
 20
311.274546
 42
-0.026073
  0
VERTEX
  8
0
 10
348.716756
 20
309.750000
 42
0.002679
  0
VERTEX
  8
0
 10
350.742391
 20
308.696020
 42
0.004121
  0
VERTEX
  8
0
 10
352.507647
 20
307.807813
 42
0.001438
  0
VERTEX
  8
0
 10
354.036439
 20
307.059764
 42
0.113529
  0
VERTEX
  8
0
 10
354.296258
 20
307.000000
 42
0.537457
  0
VERTEX
  8
0
 10
354.380099
 20
307.126729
 42
0.002573
  0
VERTEX
  8
0
 10
353.647844
 20
308.825433
 42
0.007589
  0
VERTEX
  8
0
 10
352.734601
 20
310.830873
 42
0.004397
  0
VERTEX
  8
0
 10
351.579502
 20
313.214241
 42
-0.018499
  0
VERTEX
  8
0
 10
349.871465
 20
317.007458
 42
-0.047465
  0
VERTEX
  8
0
 10
349.008192
 20
319.887306
 42
-0.040126
  0
VERTEX
  8
0
 10
348.627809
 20
323.146875
 42
-0.010253
  0
VERTEX
  8
0
 10
348.545604
 20
328.464241
 42
-0.010888
  0
VERTEX
  8
0
 10
348.679994
 20
333.473318
 42
-0.032590
  0
VERTEX
  8
0
 10
349.068683
 20
336.875445
 42
-0.039712
  0
VERTEX
  8
0
 10
349.844906
 20
339.813496
 42
-0.023523
  0
VERTEX
  8
0
 10
351.206011
 20
343.175146
 42
-0.052943
  0
VERTEX
  8
0
 10
355.577320
 20
350.508399
 42
-0.055062
  0
VERTEX
  8
0
 10
361.340875
 20
356.653827
 42
-0.055561
  0
VERTEX
  8
0
 10
368.255129
 20
361.347992
 42
-0.055783
  0
VERTEX
  8
0
 10
376.024244
 20
364.396909
 42
-0.023201
  0
VERTEX
  8
0
 10
380.872910
 20
365.461473
 42
-0.039107
  0
VERTEX
  8
0
 10
385.017233
 20
365.841991
 42
-0.038783
  0
VERTEX
  8
0
 10
389.194260
 20
365.573703
 42
-0.022378
  0
SEQEND
  0
POLYLINE
  8
0
 66
1
 70
1
  0
VERTEX
  8
0
 10
393.141557
 20
350.839442
 42
-0.064994
  0
VERTEX
  8
0
 10
397.054407
 20
349.087839
 42
-0.043170
  0
VERTEX
  8
0
 10
401.012753
 20
346.159134
 42
-0.042605
  0
VERTEX
  8
0
 10
404.476465
 20
342.532010
 42
-0.056650
  0
VERTEX
  8
0
 10
406.912088
 20
338.681602
 42
-0.085167
  0
VERTEX
  8
0
 10
408.806767
 20
332.115297
 42
-0.063462
  0
VERTEX
  8
0
 10
408.687683
 20
324.561889
 42
-0.065493
  0
VERTEX
  8
0
 10
406.723553
 20
317.555508
 42
-0.110377
  0
VERTEX
  8
0
 10
403.172997
 20
312.623760
 42
-0.034034
  0
VERTEX
  8
0
 10
401.790734
 20
311.553395
 42
-0.195478
  0
VERTEX
  8
0
 10
400.901952
 20
311.368802
 42
-0.122475
  0
VERTEX
  8
0
 10
399.907049
 20
311.819129
 42
-0.010336
  0
VERTEX
  8
0
 10
397.718059
 20
313.623760
 42
-0.011166
  0
VERTEX
  8
0
 10
396.309837
 20
314.890238
 42
-0.008865
  0
VERTEX
  8
0
 10
394.844731
 20
316.318065
 42
-0.008980
  0
VERTEX
  8
0
 10
393.533138
 20
317.690878
 42
-0.022093
  0
VERTEX
  8
0
 10
392.634413
 20
318.756887
 42
-0.025603
  0
VERTEX
  8
0
 10
391.688000
 20
320.125269
 42
-0.128770
  0
VERTEX
  8
0
 10
391.417339
 20
321.007238
 42
-0.134855
  0
VERTEX
  8
0
 10
391.620116
 20
321.887285
 42
-0.029122
  0
VERTEX
  8
0
 10
392.448120
 20
323.229393
 42
0.093682
  0
VERTEX
  8
0
 10
393.429442
 20
325.402321
 42
0.040441
  0
VERTEX
  8
0
 10
393.926632
 20
328.552518
 42
0.039906
  0
VERTEX
  8
0
 10
393.913997
 20
331.656978
 42
0.126897
  0
VERTEX
  8
0
 10
393.234687
 20
333.600296
 42
0.135288
  0
VERTEX
  8
0
 10
390.718681
 20
335.776572
 42
0.086944
  0
VERTEX
  8
0
 10
386.977360
 20
336.814942
 42
0.083468
  0
VERTEX
  8
0
 10
382.954575
 20
336.535820
 42
0.108091
  0
VERTEX
  8
0
 10
379.634859
 20
334.927420
 42
0.045252
  0
VERTEX
  8
0
 10
378.325585
 20
333.690575
 42
0.080415
  0
VERTEX
  8
0
 10
377.535815
 20
332.438982
 42
0.071448
  0
VERTEX
  8
0
 10
377.126789
 20
330.899991
 42
0.029287
  0
VERTEX
  8
0
 10
377.000000
 20
328.737289
 42
0.104629
  0
VERTEX
  8
0
 10
377.640801
 20
325.708566
 42
0.067009
  0
VERTEX
  8
0
 10
379.529423
 20
322.633790
 42
0.022817
  0
VERTEX
  8
0
 10
383.749758
 20
317.920382
 42
0.001748
  0
VERTEX
  8
0
 10
395.724037
 20
305.801215
 42
0.002392
  0
VERTEX
  8
0
 10
402.953266
 20
298.604696
 42
0.003919
  0
VERTEX
  8
0
 10
409.153282
 20
292.586612
 42
0.000679
  0
VERTEX
  8
0
 10
414.656527
 20
287.342270
 42
0.286003
  0
VERTEX
  8
0
 10
415.147287
 20
287.241346
 42
0.086312
  0
VERTEX
  8
0
 10
415.589219
 20
287.498212
 42
0.003593
  0
VERTEX
  8
0
 10
416.983249
 20
288.686495
 42
0.006130
  0
VERTEX
  8
0
 10
418.614217
 20
290.132436
 42
0.004306
  0
VERTEX
  8
0
 10
420.415493
 20
291.797785
 42
-0.034191
  0
VERTEX
  8
0
 10
424.735150
 20
295.337362
 42
-0.055977
  0
VERTEX
  8
0
 10
428.868599
 20
297.629259
 42
-0.058043
  0
VERTEX
  8
0
 10
433.297035
 20
298.895389
 42
-0.040049
  0
VERTEX
  8
0
 10
438.500000
 20
299.325447
 42
-0.116882
  0
VERTEX
  8
0
 10
449.049236
 20
296.852136
 42
-0.120417
  0
VERTEX
  8
0
 10
457.232094
 20
289.922207
 42
-0.118920
  0
VERTEX
  8
0
 10
461.362792
 20
279.921776
 42
-0.112085
  0
VERTEX
  8
0
 10
460.609424
 20
268.901869
 42
-0.120028
  0
VERTEX
  8
0
 10
454.966156
 20
259.279395
 42
-0.119835
  0
VERTEX
  8
0
 10
445.527005
 20
253.322794
 42
-0.120475
  0
VERTEX
  8
0
 10
434.448148
 20
252.383145
 42
-0.122171
  0
VERTEX
  8
0
 10
424.250000
 20
256.674657
 42
-0.022662
  0
VERTEX
  8
0
 10
423.005700
 20
257.694888
 42
-0.028423
  0
VERTEX
  8
0
 10
421.954687
 20
258.753329
 42
-0.028820
  0
VERTEX
  8
0
 10
421.198012
 20
259.713498
 42
-0.153641
  0
VERTEX
  8
0
 10
421.000000
 20
260.342683
 42
-0.154541
  0
VERTEX
  8
0
 10
421.223716
 20
261.049203
 42
-0.014688
  0
VERTEX
  8
0
 10
422.323258
 20
262.517749
 42
-0.017664
  0
VERTEX
  8
0
 10
423.779341
 20
264.220791
 42
-0.013017
  0
VERTEX
  8
0
 10
425.504707
 20
266.004619
 42
0.000000
  0
VERTEX
  8
0
 10
430.009413
 20
270.425654
 42
0.000000
  0
VERTEX
  8
0
 10
432.908999
 20
268.712827
 42
0.093619
  0
VERTEX
  8
0
 10
437.342929
 20
267.110024
 42
0.125677
  0
VERTEX
  8
0
 10
441.581159
 20
267.491924
 42
0.138302
  0
VERTEX
  8
0
 10
444.837664
 20
269.791147
 42
0.124569
  0
VERTEX
  8
0
 10
446.574496
 20
273.545408
 42
0.111113
  0
VERTEX
  8
0
 10
446.387694
 20
278.750569
 42
0.151754
  0
VERTEX
  8
0
 10
443.916737
 20
282.705854
 42
0.158344
  0
VERTEX
  8
0
 10
439.733019
 20
284.460456
 42
0.123195
  0
VERTEX
  8
0
 10
434.835755
 20
283.659451
 42
0.090632
  0
VERTEX
  8
0
 10
430.975767
 20
281.085855
 42
0.001964
  0
VERTEX
  8
0
 10
414.698179
 20
265.214909
 42
0.001035
  0
VERTEX
  8
0
 10
397.901415
 20
248.640059
 42
0.200103
  0
VERTEX
  8
0
 10
397.000000
 20
246.477867
 42
0.157679
  0
VERTEX
  8
0
 10
397.173002
 20
245.942919
 42
0.010780
  0
VERTEX
  8
0
 10
398.146561
 20
244.654595
 42
0.014563
  0
VERTEX
  8
0
 10
399.407969
 20
243.150321
 42
0.010378
  0
VERTEX
  8
0
 10
400.903187
 20
241.537852
 42
-0.031977
  0
VERTEX
  8
0
 10
404.656502
 20
237.122325
 42
-0.053326
  0
VERTEX
  8
0
 10
407.137421
 20
232.926885
 42
-0.058419
  0
VERTEX
  8
0
 10
408.530326
 20
228.589993
 42
-0.048554
  0
VERTEX
  8
0
 10
409.000000
 20
223.764809
 42
0.000000
  0
VERTEX
  8
0
 10
409.000000
 20
218.000000
 42
0.000000
  0
VERTEX
  8
0
 10
401.242794
 20
218.000000
 42
0.000000
  0
VERTEX
  8
0
 10
393.485588
 20
218.000000
 42
0.000000
  0
VERTEX
  8
0
 10
393.850564
 20
222.588976
 42
0.000000
  0
VERTEX
  8
0
 10
394.215540
 20
227.177952
 42
0.000000
  0
VERTEX
  8
0
 10
375.151219
 20
246.316635
 42
0.000000
  0
VERTEX
  8
0
 10
356.086898
 20
265.455319
 42
0.000000
  0
VERTEX
  8
0
 10
351.409722
 20
260.778143
 42
-0.029717
  0
VERTEX
  8
0
 10
347.323475
 20
257.150748
 42
-0.047945
  0
VERTEX
  8
0
 10
343.411468
 20
254.639129
 42
-0.051834
  0
VERTEX
  8
0
 10
339.326496
 20
253.048330
 42
-0.042900
  0
VERTEX
  8
0
 10
334.731948
 20
252.202600
 42
-0.084555
  0
VERTEX
  8
0
 10
328.122382
 20
252.682117
 42
-0.070245
  0
VERTEX
  8
0
 10
321.570743
 20
255.309495
 42
-0.068723
  0
VERTEX
  8
0
 10
315.873862
 20
259.720654
 42
-0.074310
  0
VERTEX
  8
0
 10
311.760872
 20
265.405320
 42
-0.071542
  0
VERTEX
  8
0
 10
309.983648
 20
270.508018
 42
-0.054480
  0
VERTEX
  8
0
 10
309.489680
 20
276.413032
 42
-0.054509
  0
VERTEX
  8
0
 10
310.282649
 20
282.281781
 42
-0.071843
  0
VERTEX
  8
0
 10
312.316413
 20
287.276945
 42
-0.106394
  0
VERTEX
  8
0
 10
319.432331
 20
295.037685
 42
-0.106839
  0
VERTEX
  8
0
 10
329.100554
 20
299.169358
 42
-0.109978
  0
VERTEX
  8
0
 10
339.382617
 20
298.880467
 42
-0.118724
  0
VERTEX
  8
0
 10
348.250000
 20
294.224423
 42
-0.109824
  0
VERTEX
  8
0
 10
349.610081
 20
292.367542
 42
-0.177768
  0
VERTEX
  8
0
 10
349.729120
 20
290.435795
 42
-0.107019
  0
VERTEX
  8
0
 10
348.478691
 20
288.166047
 42
-0.027336
  0
VERTEX
  8
0
 10
345.535931
 20
285.139885
 42
0.000000
  0
VERTEX
  8
0
 10
341.071863
 20
281.025051
 42
0.000000
  0
VERTEX
  8
0
 10
337.559794
 20
283.097222
 42
0.097320
  0
VERTEX
  8
0
 10
333.382784
 20
284.570159
 42
0.134280
  0
VERTEX
  8
0
 10
329.454908
 20
284.088656
 42
0.135510
  0
VERTEX
  8
0
 10
326.343606
 20
281.682323
 42
0.099959
  0
VERTEX
  8
0
 10
324.464631
 20
277.730589
 42
0.092520
  0
VERTEX
  8
0
 10
324.293232
 20
274.880651
 42
0.071313
  0
VERTEX
  8
0
 10
325.116089
 20
271.870368
 42
0.074539
  0
VERTEX
  8
0
 10
326.692486
 20
269.344872
 42
0.125821
  0
VERTEX
  8
0
 10
328.721266
 20
267.915875
 42
0.111450
  0
VERTEX
  8
0
 10
333.017855
 20
267.304533
 42
0.129603
  0
VERTEX
  8
0
 10
336.900751
 20
268.671143
 42
0.043416
  0
VERTEX
  8
0
 10
342.297680
 20
273.061944
 42
0.003316
  0
VERTEX
  8
0
 10
355.692743
 20
286.217403
 42
0.000000
  0
VERTEX
  8
0
 10
375.002275
 20
305.434806
 42
0.000000
  0
VERTEX
  8
0
 10
370.046224
 20
310.467403
 42
-0.031695
  0
VERTEX
  8
0
 10
366.239661
 20
314.857142
 42
-0.056526
  0
VERTEX
  8
0
 10
363.792950
 20
318.956827
 42
-0.061434
  0
VERTEX
  8
0
 10
362.452416
 20
323.253517
 42
-0.045421
  0
VERTEX
  8
0
 10
362.009769
 20
328.217881
 42
-0.114903
  0
VERTEX
  8
0
 10
364.560595
 20
339.080234
 42
-0.121330
  0
VERTEX
  8
0
 10
371.621078
 20
347.446840
 42
-0.120028
  0
VERTEX
  8
0
 10
381.827279
 20
351.635811
 42
-0.110864
  0
SEQEND
  0
POLYLINE
  8
0
 66
1
 70
1
  0
VERTEX
  8
0
 10
373.269187
 20
238.426948
 42
-0.012995
  0
VERTEX
  8
0
 10
374.578924
 20
237.265423
 42
-0.009252
  0
VERTEX
  8
0
 10
375.987140
 20
235.899951
 42
-0.009349
  0
VERTEX
  8
0
 10
377.282881
 20
234.546466
 42
-0.019600
  0
VERTEX
  8
0
 10
378.227724
 20
233.437625
 42
-0.022631
  0
VERTEX
  8
0
 10
379.283334
 20
231.962933
 42
-0.126613
  0
VERTEX
  8
0
 10
379.590123
 20
231.049795
 42
-0.141169
  0
VERTEX
  8
0
 10
379.400568
 20
230.152742
 42
-0.030580
  0
VERTEX
  8
0
 10
378.564182
 20
228.788170
 42
0.065943
  0
VERTEX
  8
0
 10
377.963062
 20
227.631597
 42
0.027967
  0
VERTEX
  8
0
 10
377.459478
 20
225.954471
 42
0.027074
  0
VERTEX
  8
0
 10
377.115013
 20
224.079017
 42
0.031889
  0
VERTEX
  8
0
 10
377.000000
 20
222.277494
 42
0.000000
  0
VERTEX
  8
0
 10
377.000000
 20
218.000000
 42
0.000000
  0
VERTEX
  8
0
 10
369.500000
 20
218.000000
 42
0.000000
  0
VERTEX
  8
0
 10
362.000000
 20
218.000000
 42
0.000000
  0
VERTEX
  8
0
 10
362.000000
 20
223.539838
 42
-0.047672
  0
VERTEX
  8
0
 10
362.398494
 20
227.709906
 42
-0.040403
  0
VERTEX
  8
0
 10
363.585251
 20
231.976301
 42
-0.040790
  0
VERTEX
  8
0
 10
365.425453
 20
235.950917
 42
-0.051552
  0
VERTEX
  8
0
 10
367.771499
 20
239.250000
 42
-0.029071
  0
VERTEX
  8
0
 10
369.078390
 20
240.572958
 42
-0.224141
  0
VERTEX
  8
0
 10
369.890201
 20
240.817327
 42
-0.130577
  0
VERTEX
  8
0
 10
370.839925
 20
240.406476
 42
-0.007883
  0
SEQEND
  0
POLYLINE
  8
0
 66
1
 70
1
  0
VERTEX
  8
0
 10
531.460912
 20
209.252207
 42
-0.027062
  0
VERTEX
  8
0
 10
527.369550
 20
200.780054
 42
-0.016452
  0
VERTEX
  8
0
 10
521.679199
 20
191.220071
 42
-0.015823
  0
VERTEX
  8
0
 10
515.007401
 20
181.498144
 42
-0.017242
  0
VERTEX
  8
0
 10
507.914088
 20
172.500000
 42
-0.010038
  0
VERTEX
  8
0
 10
501.810307
 20
165.570496
 42
-0.015990
  0
VERTEX
  8
0
 10
496.289533
 20
159.924445
 42
-0.015789
  0
VERTEX
  8
0
 10
490.368729
 20
154.593062
 42
-0.009476
  0
VERTEX
  8
0
 10
483.026683
 20
148.624981
 42
0.000000
  0
VERTEX
  8
0
 10
474.553366
 20
142.000000
 42
0.000000
  0
VERTEX
  8
0
 10
385.702139
 20
142.000000
 42
0.000000
  0
VERTEX
  8
0
 10
296.850911
 20
142.000000
 42
0.000000
  0
VERTEX
  8
0
 10
289.178697
 20
147.750000
 42
-0.033740
  0
VERTEX
  8
0
 10
274.464771
 20
160.412633
 42
-0.028421
  0
VERTEX
  8
0
 10
260.663747
 20
175.652145
 42
-0.028708
  0
VERTEX
  8
0
 10
248.837651
 20
192.158804
 42
-0.036968
  0
VERTEX
  8
0
 10
240.051955
 20
208.615451
 42
0.000000
  0
VERTEX
  8
0
 10
238.112461
 20
213.000000
 42
0.000000
  0
VERTEX
  8
0
 10
385.569650
 20
213.000000
 42
0.000000
  0
VERTEX
  8
0
 10
533.026840
 20
213.000000
 42
0.000000
  0
SEQEND
  0
POLYLINE
  8
0
 66
1
 70
1
  0
VERTEX
  8
0
 10
462.916667
 20
135.587907
 42
-0.073976
  0
VERTEX
  8
0
 10
462.565958
 20
135.331018
 42
-0.001071
  0
VERTEX
  8
0
 10
460.272396
 20
134.130042
 42
-0.002922
  0
VERTEX
  8
0
 10
457.596101
 20
132.755778
 42
-0.001920
  0
VERTEX
  8
0
 10
454.500000
 20
131.203648
 42
-0.062311
  0
VERTEX
  8
0
 10
421.530477
 20
119.674541
 42
-0.053690
  0
VERTEX
  8
0
 10
385.004571
 20
115.837707
 42
-0.053835
  0
VERTEX
  8
0
 10
348.602604
 20
119.864889
 42
-0.063501
  0
VERTEX
  8
0
 10
316.000000
 20
131.565950
 42
0.000000
  0
VERTEX
  8
0
 10
307.500000
 20
135.898774
 42
0.000000
  0
VERTEX
  8
0
 10
385.416667
 20
135.949387
 42
-0.000495
  0
VERTEX
  8
0
 10
415.265531
 20
135.939204
 42
-0.000833
  0
VERTEX
  8
0
 10
440.322917
 20
135.864080
 42
-0.000040
  0
VERTEX
  8
0
 10
462.847556
 20
135.757225
 42
-0.668430
  0
SEQEND
  0
POLYLINE
  8
0
 66
1
 70
1
  0
VERTEX
  8
0
 10
375.629473
 20
284.896131
 42
0.000000
  0
VERTEX
  8
0
 10
366.663185
 20
275.792263
 42
0.000000
  0
VERTEX
  8
0
 10
375.581593
 20
266.922475
 42
0.005205
  0
VERTEX
  8
0
 10
379.073404
 20
263.521267
 42
0.007943
  0
VERTEX
  8
0
 10
382.180092
 20
260.650449
 42
0.003569
  0
VERTEX
  8
0
 10
384.865592
 20
258.281097
 42
0.174231
  0
VERTEX
  8
0
 10
385.520849
 20
258.026344
 42
0.187966
  0
VERTEX
  8
0
 10
386.176163
 20
258.262435
 42
0.003750
  0
VERTEX
  8
0
 10
388.873325
 20
260.651488
 42
0.008373
  0
VERTEX
  8
0
 10
391.992834
 20
263.552610
 42
0.005459
  0
VERTEX
  8
0
 10
395.500000
 20
267.000000
 42
0.000000
  0
VERTEX
  8
0
 10
404.458301
 20
276.000000
 42
0.000000
  0
VERTEX
  8
0
 10
395.500000
 20
285.000000
 42
0.005072
  0
VERTEX
  8
0
 10
391.996266
 20
288.449340
 42
0.007796
  0
VERTEX
  8
0
 10
388.887390
 20
291.356250
 42
0.003345
  0
VERTEX
  8
0
 10
386.195609
 20
293.763015
 42
0.182709
  0
VERTEX
  8
0
 10
385.568730
 20
294.000000
 42
0.184099
  0
VERTEX
  8
0
 10
384.942707
 20
293.761413
 42
0.003329
  0
VERTEX
  8
0
 10
382.247723
 20
291.325739
 42
0.007796
  0
VERTEX
  8
0
 10
379.136280
 20
288.385298
 42
0.005068
  0
SEQEND
  0
POLYLINE
  8
0
 66
1
 70
1
  0
VERTEX
  8
0
 10
276.434536
 20
177.000000
 42
0.000000
  0
VERTEX
  8
0
 10
276.377849
 20
167.000000
 42
0.000000
  0
VERTEX
  8
0
 10
285.249290
 20
167.000000
 42
0.000000
  0
VERTEX
  8
0
 10
294.120731
 20
167.000000
 42
0.000000
  0
VERTEX
  8
0
 10
293.810365
 20
170.750000
 42
0.023371
  0
VERTEX
  8
0
 10
293.539534
 20
172.832767
 42
0.117820
  0
VERTEX
  8
0
 10
293.074450
 20
173.901075
 42
0.154447
  0
VERTEX
  8
0
 10
292.245157
 20
174.492070
 42
0.049574
  0
VERTEX
  8
0
 10
290.750000
 20
174.816422
 42
0.032073
  0
VERTEX
  8
0
 10
289.467019
 20
174.881185
 42
0.103603
  0
VERTEX
  8
0
 10
288.638397
 20
174.695753
 42
0.165427
  0
VERTEX
  8
0
 10
288.172197
 20
174.257497
 42
0.122711
  0
VERTEX
  8
0
 10
288.000000
 20
173.566422
 42
-0.120050
  0
VERTEX
  8
0
 10
287.850282
 20
172.951844
 42
-0.107528
  0
VERTEX
  8
0
 10
287.430801
 20
172.445803
 42
-0.094517
  0
VERTEX
  8
0
 10
286.786901
 20
172.113892
 42
-0.071992
  0
VERTEX
  8
0
 10
286.000000
 20
172.000000
 42
-0.072314
  0
VERTEX
  8
0
 10
285.230589
 20
172.111864
 42
-0.088920
  0
VERTEX
  8
0
 10
284.583333
 20
172.437500
 42
-0.102140
  0
VERTEX
  8
0
 10
284.153209
 20
172.924246
 42
-0.130775
  0
VERTEX
  8
0
 10
284.000000
 20
173.500000
 42
-0.130775
  0
VERTEX
  8
0
 10
284.153209
 20
174.075754
 42
-0.102140
  0
VERTEX
  8
0
 10
284.583333
 20
174.562500
 42
-0.088920
  0
VERTEX
  8
0
 10
285.230589
 20
174.888136
 42
-0.072314
  0
VERTEX
  8
0
 10
286.000000
 20
175.000000
 42
0.072254
  0
VERTEX
  8
0
 10
286.873159
 20
175.126841
 42
0.124864
  0
VERTEX
  8
0
 10
287.500000
 20
175.500000
 42
0.124864
  0
VERTEX
  8
0
 10
287.873159
 20
176.126841
 42
0.072254
  0
VERTEX
  8
0
 10
288.000000
 20
177.000000
 42
0.072314
  0
VERTEX
  8
0
 10
287.888136
 20
177.769411
 42
0.088920
  0
VERTEX
  8
0
 10
287.562500
 20
178.416667
 42
0.102140
  0
VERTEX
  8
0
 10
287.075754
 20
178.846791
 42
0.130775
  0
VERTEX
  8
0
 10
286.500000
 20
179.000000
 42
-0.064853
  0
VERTEX
  8
0
 10
285.926543
 20
179.074694
 42
-0.082425
  0
VERTEX
  8
0
 10
285.440625
 20
179.293750
 42
-0.098894
  0
VERTEX
  8
0
 10
285.115568
 20
179.618646
 42
-0.148195
  0
VERTEX
  8
0
 10
285.000000
 20
180.000000
 42
-0.148195
  0
VERTEX
  8
0
 10
285.115568
 20
180.381354
 42
-0.098894
  0
VERTEX
  8
0
 10
285.440625
 20
180.706250
 42
-0.082425
  0
VERTEX
  8
0
 10
285.926543
 20
180.925306
 42
-0.064853
  0
VERTEX
  8
0
 10
286.500000
 20
181.000000
 42
-0.064853
  0
VERTEX
  8
0
 10
287.073457
 20
180.925306
 42
-0.082425
  0
VERTEX
  8
0
 10
287.559375
 20
180.706250
 42
-0.098894
  0
VERTEX
  8
0
 10
287.884432
 20
180.381354
 42
-0.148195
  0
VERTEX
  8
0
 10
288.000000
 20
180.000000
 42
0.325366
  0
VERTEX
  8
0
 10
288.283954
 20
179.609834
 42
0.030105
  0
VERTEX
  8
0
 10
289.509804
 20
179.293750
 42
0.029737
  0
VERTEX
  8
0
 10
291.169595
 20
179.072187
 42
0.018314
  0
VERTEX
  8
0
 10
293.139757
 20
179.000000
 42
0.018844
  0
VERTEX
  8
0
 10
295.623586
 20
179.093643
 42
0.047251
  0
VERTEX
  8
0
 10
297.408930
 20
179.399737
 42
0.066644
  0
VERTEX
  8
0
 10
298.694579
 20
179.939242
 42
0.098083
  0
VERTEX
  8
0
 10
299.607954
 20
180.750000
 42
-0.077006
  0
VERTEX
  8
0
 10
300.305218
 20
181.423120
 42
-0.485653
  0
VERTEX
  8
0
 10
300.712507
 20
181.301520
 42
-0.087281
  0
VERTEX
  8
0
 10
300.916736
 20
180.305962
 42
-0.005521
  0
VERTEX
  8
0
 10
300.968197
 20
177.309017
 42
-0.018003
  0
VERTEX
  8
0
 10
300.907434
 20
175.275726
 42
-0.024824
  0
VERTEX
  8
0
 10
300.696908
 20
173.461338
 42
-0.023113
  0
VERTEX
  8
0
 10
300.388678
 20
172.024874
 42
-0.192225
  0
VERTEX
  8
0
 10
300.000000
 20
171.500000
 42
0.111412
  0
VERTEX
  8
0
 10
299.616444
 20
171.123976
 42
0.050262
  0
VERTEX
  8
0
 10
299.293750
 20
170.493350
 42
0.046318
  0
VERTEX
  8
0
 10
299.074077
 20
169.729296
 42
0.046881
  0
VERTEX
  8
0
 10
299.000000
 20
168.940983
 42
0.126870
  0
VERTEX
  8
0
 10
299.261045
 20
167.928755
 42
0.183714
  0
VERTEX
  8
0
 10
299.958404
 20
167.338227
 42
0.074966
  0
VERTEX
  8
0
 10
301.397821
 20
167.061983
 42
0.009989
  0
VERTEX
  8
0
 10
304.500000
 20
167.000000
 42
0.008616
  0
VERTEX
  8
0
 10
307.900424
 20
167.058601
 42
0.098356
  0
VERTEX
  8
0
 10
309.200000
 20
167.363636
 42
0.221767
  0
VERTEX
  8
0
 10
309.804980
 20
168.070774
 42
0.067911
  0
VERTEX
  8
0
 10
310.000000
 20
169.500000
 42
0.038131
  0
VERTEX
  8
0
 10
309.926884
 20
170.457356
 42
0.057076
  0
VERTEX
  8
0
 10
309.706250
 20
171.265625
 42
0.074992
  0
VERTEX
  8
0
 10
309.382936
 20
171.817169
 42
0.226478
  0
VERTEX
  8
0
 10
309.000000
 20
172.000000
 42
-0.315576
  0
VERTEX
  8
0
 10
308.610956
 20
172.272705
 42
-0.034618
  0
VERTEX
  8
0
 10
308.293750
 20
173.380625
 42
-0.032379
  0
VERTEX
  8
0
 10
308.072249
 20
174.898522
 42
-0.020045
  0
VERTEX
  8
0
 10
308.000000
 20
176.700000
 42
-0.009600
  0
VERTEX
  8
0
 10
308.045596
 20
179.074623
 42
-0.073105
  0
VERTEX
  8
0
 10
308.250000
 20
180.170833
 42
-0.330343
  0
VERTEX
  8
0
 10
308.644233
 20
180.441926
 42
-0.189643
  0
VERTEX
  8
0
 10
309.200000
 20
180.200000
 42
0.108495
  0
VERTEX
  8
0
 10
310.604305
 20
179.301363
 42
0.102410
  0
VERTEX
  8
0
 10
312.286323
 20
179.048870
 42
0.116279
  0
VERTEX
  8
0
 10
313.767042
 20
179.485302
 42
0.173264
  0
VERTEX
  8
0
 10
314.638374
 20
180.500000
 42
-0.048303
  0
VERTEX
  8
0
 10
314.924763
 20
181.073796
 42
-0.053891
  0
VERTEX
  8
0
 10
315.307216
 20
181.559375
 42
-0.061199
  0
VERTEX
  8
0
 10
315.723081
 20
181.891374
 42
-0.138750
  0
VERTEX
  8
0
 10
316.106989
 20
182.000000
 42
-0.398276
  0
VERTEX
  8
0
 10
316.885677
 20
181.262797
 42
-0.016229
  0
VERTEX
  8
0
 10
316.979780
 20
177.037142
 42
-0.017605
  0
VERTEX
  8
0
 10
316.786672
 20
172.786230
 42
-0.238530
  0
VERTEX
  8
0
 10
316.000000
 20
171.500000
 42
0.111412
  0
VERTEX
  8
0
 10
315.616444
 20
171.123976
 42
0.050262
  0
VERTEX
  8
0
 10
315.293750
 20
170.493350
 42
0.046318
  0
VERTEX
  8
0
 10
315.074077
 20
169.729296
 42
0.046881
  0
VERTEX
  8
0
 10
315.000000
 20
168.940983
 42
0.190418
  0
VERTEX
  8
0
 10
315.413880
 20
167.893621
 42
0.155382
  0
VERTEX
  8
0
 10
316.473607
 20
167.301079
 42
0.046151
  0
VERTEX
  8
0
 10
318.771775
 20
167.048878
 42
0.004266
  0
VERTEX
  8
0
 10
324.500000
 20
167.000000
 42
0.000000
  0
VERTEX
  8
0
 10
334.000000
 20
167.000000
 42
0.000000
  0
VERTEX
  8
0
 10
334.000000
 20
171.000000
 42
0.015744
  0
VERTEX
  8
0
 10
333.923201
 20
173.438365
 42
0.146160
  0
VERTEX
  8
0
 10
333.562500
 20
174.416667
 42
0.200505
  0
VERTEX
  8
0
 10
332.775737
 20
174.879267
 42
0.033956
  0
VERTEX
  8
0
 10
331.000000
 20
175.000000
 42
0.033607
  0
VERTEX
  8
0
 10
329.677925
 20
174.911037
 42
0.082504
  0
VERTEX
  8
0
 10
328.750000
 20
174.625000
 42
0.126510
  0
VERTEX
  8
0
 10
328.202091
 20
174.148955
 42
0.152103
  0
VERTEX
  8
0
 10
328.000000
 20
173.500000
 42
-0.130775
  0
VERTEX
  8
0
 10
327.846791
 20
172.924246
 42
-0.102140
  0
VERTEX
  8
0
 10
327.416667
 20
172.437500
 42
-0.088920
  0
VERTEX
  8
0
 10
326.769411
 20
172.111864
 42
-0.072314
  0
VERTEX
  8
0
 10
326.000000
 20
172.000000
 42
-0.072314
  0
VERTEX
  8
0
 10
325.230589
 20
172.111864
 42
-0.088920
  0
VERTEX
  8
0
 10
324.583333
 20
172.437500
 42
-0.102140
  0
VERTEX
  8
0
 10
324.153209
 20
172.924246
 42
-0.130775
  0
VERTEX
  8
0
 10
324.000000
 20
173.500000
 42
-0.130775
  0
VERTEX
  8
0
 10
324.153209
 20
174.075754
 42
-0.102140
  0
VERTEX
  8
0
 10
324.583333
 20
174.562500
 42
-0.088920
  0
VERTEX
  8
0
 10
325.230589
 20
174.888136
 42
-0.072314
  0
VERTEX
  8
0
 10
326.000000
 20
175.000000
 42
0.072254
  0
VERTEX
  8
0
 10
326.873159
 20
175.126841
 42
0.124864
  0
VERTEX
  8
0
 10
327.500000
 20
175.500000
 42
0.124864
  0
VERTEX
  8
0
 10
327.873159
 20
176.126841
 42
0.072254
  0
VERTEX
  8
0
 10
328.000000
 20
177.000000
 42
0.072254
  0
VERTEX
  8
0
 10
327.873159
 20
177.873159
 42
0.124864
  0
VERTEX
  8
0
 10
327.500000
 20
178.500000
 42
0.124864
  0
VERTEX
  8
0
 10
326.873159
 20
178.873159
 42
0.072254
  0
VERTEX
  8
0
 10
326.000000
 20
179.000000
 42
-0.048028
  0
VERTEX
  8
0
 10
325.234582
 20
179.073693
 42
-0.068025
  0
VERTEX
  8
0
 10
324.587500
 20
179.293750
 42
-0.088204
  0
VERTEX
  8
0
 10
324.151477
 20
179.618118
 42
-0.191087
  0
VERTEX
  8
0
 10
324.000000
 20
180.000000
 42
-0.191087
  0
VERTEX
  8
0
 10
324.151477
 20
180.381882
 42
-0.088204
  0
VERTEX
  8
0
 10
324.587500
 20
180.706250
 42
-0.068025
  0
VERTEX
  8
0
 10
325.234582
 20
180.926307
 42
-0.048028
  0
VERTEX
  8
0
 10
326.000000
 20
181.000000
 42
-0.051351
  0
VERTEX
  8
0
 10
326.765257
 20
180.921199
 42
-0.071280
  0
VERTEX
  8
0
 10
327.412500
 20
180.686738
 42
-0.091330
  0
VERTEX
  8
0
 10
327.847572
 20
180.340620
 42
-0.181098
  0
VERTEX
  8
0
 10
328.000000
 20
179.933578
 42
0.249719
  0
VERTEX
  8
0
 10
328.204679
 20
179.549316
 42
0.081602
  0
VERTEX
  8
0
 10
328.807813
 20
179.273366
 42
0.058686
  0
VERTEX
  8
0
 10
329.696507
 20
179.139948
 42
0.036601
  0
VERTEX
  8
0
 10
330.750000
 20
179.183578
 42
0.049574
  0
VERTEX
  8
0
 10
332.245157
 20
179.507930
 42
0.154447
  0
VERTEX
  8
0
 10
333.074450
 20
180.098925
 42
0.117820
  0
VERTEX
  8
0
 10
333.539534
 20
181.167233
 42
0.023371
  0
VERTEX
  8
0
 10
333.810365
 20
183.250000
 42
0.000000
  0
VERTEX
  8
0
 10
334.120731
 20
187.000000
 42
0.000000
  0
VERTEX
  8
0
 10
305.305977
 20
187.000000
 42
0.000000
  0
VERTEX
  8
0
 10
276.491224
 20
187.000000
 42
0.000000
  0
SEQEND
  0
POLYLINE
  8
0
 66
1
 70
1
  0
VERTEX
  8
0
 10
335.000000
 20
184.105885
 42
0.030525
  0
VERTEX
  8
0
 10
335.072711
 20
182.916001
 42
0.047392
  0
VERTEX
  8
0
 10
335.293750
 20
181.912354
 42
0.060342
  0
VERTEX
  8
0
 10
335.615440
 20
181.214661
 42
0.260203
  0
VERTEX
  8
0
 10
336.000000
 20
181.000000
 42
-0.293924
  0
VERTEX
  8
0
 10
336.386960
 20
180.751017
 42
-0.044731
  0
VERTEX
  8
0
 10
336.706250
 20
179.842336
 42
-0.038191
  0
VERTEX
  8
0
 10
336.927595
 20
178.569320
 42
-0.023957
  0
VERTEX
  8
0
 10
337.000000
 20
177.059017
 42
-0.023552
  0
VERTEX
  8
0
 10
336.926750
 20
175.504790
 42
-0.030444
  0
VERTEX
  8
0
 10
336.706250
 20
174.094150
 42
-0.031293
  0
VERTEX
  8
0
 10
336.387806
 20
172.980410
 42
-0.170670
  0
VERTEX
  8
0
 10
336.000000
 20
172.500000
 42
0.130646
  0
VERTEX
  8
0
 10
335.615492
 20
172.093337
 42
0.045439
  0
VERTEX
  8
0
 10
335.293750
 20
171.346475
 42
0.041396
  0
VERTEX
  8
0
 10
335.073842
 20
170.420660
 42
0.037634
  0
VERTEX
  8
0
 10
335.000000
 20
169.440983
 42
0.071585
  0
VERTEX
  8
0
 10
335.198906
 20
168.058803
 42
0.219027
  0
VERTEX
  8
0
 10
335.806148
 20
167.362380
 42
0.096989
  0
VERTEX
  8
0
 10
337.105670
 20
167.059364
 42
0.008927
  0
VERTEX
  8
0
 10
340.430194
 20
167.000000
 42
0.000000
  0
VERTEX
  8
0
 10
345.860389
 20
167.000000
 42
0.000000
  0
VERTEX
  8
0
 10
344.930194
 20
170.243398
 42
-0.007706
  0
VERTEX
  8
0
 10
344.205432
 20
172.925830
 42
-0.065883
  0
VERTEX
  8
0
 10
344.060579
 20
174.159294
 42
-0.214727
  0
VERTEX
  8
0
 10
344.339398
 20
174.755088
 42
-0.179404
  0
VERTEX
  8
0
 10
345.000000
 20
175.000000
 42
-0.172913
  0
VERTEX
  8
0
 10
345.381565
 20
174.863978
 42
-0.093637
  0
VERTEX
  8
0
 10
345.706250
 20
174.477861
 42
-0.073999
  0
VERTEX
  8
0
 10
345.925930
 20
173.902499
 42
-0.054303
  0
VERTEX
  8
0
 10
346.000000
 20
173.222506
 42
0.064700
  0
VERTEX
  8
0
 10
346.108956
 20
172.384027
 42
0.028182
  0
VERTEX
  8
0
 10
346.457282
 20
171.314290
 42
0.027309
  0
VERTEX
  8
0
 10
346.960821
 20
170.203904
 42
0.032678
  0
VERTEX
  8
0
 10
347.556704
 20
169.222506
 42
0.086197
  0
VERTEX
  8
0
 10
348.755917
 20
168.017484
 42
0.099615
  0
VERTEX
  8
0
 10
350.234780
 20
167.361900
 42
0.047900
  0
VERTEX
  8
0
 10
352.618705
 20
167.067264
 42
0.006811
  0
VERTEX
  8
0
 10
357.556704
 20
167.000000
 42
0.004211
  0
VERTEX
  8
0
 10
363.026322
 20
167.046068
 42
0.065575
  0
VERTEX
  8
0
 10
364.876556
 20
167.321556
 42
0.219751
  0
VERTEX
  8
0
 10
365.699775
 20
168.031138
 42
0.107100
  0
VERTEX
  8
0
 10
366.000000
 20
169.416667
 42
0.042532
  0
VERTEX
  8
0
 10
365.918893
 20
170.368414
 42
0.051498
  0
VERTEX
  8
0
 10
365.677454
 20
171.230953
 42
0.059855
  0
VERTEX
  8
0
 10
365.323235
 20
171.886486
 42
0.159860
  0
VERTEX
  8
0
 10
364.901970
 20
172.199343
 42
-0.177819
  0
VERTEX
  8
0
 10
364.506792
 20
172.514818
 42
-0.070277
  0
VERTEX
  8
0
 10
364.228720
 20
173.163809
 42
-0.057753
  0
VERTEX
  8
0
 10
364.099808
 20
174.021976
 42
-0.044414
  0
VERTEX
  8
0
 10
364.151970
 20
174.968659
 42
-0.081759
  0
VERTEX
  8
0
 10
364.468528
 20
175.967302
 42
-0.490040
  0
VERTEX
  8
0
 10
364.927551
 20
176.055284
 42
-0.082841
  0
VERTEX
  8
0
 10
365.661305
 20
175.154513
 42
-0.005337
  0
VERTEX
  8
0
 10
367.312412
 20
172.185983
 42
0.012933
  0
VERTEX
  8
0
 10
369.169106
 20
168.964046
 42
0.100643
  0
VERTEX
  8
0
 10
370.344379
 20
167.700605
 42
0.129344
  0
VERTEX
  8
0
 10
371.798453
 20
167.147192
 42
0.026608
  0
VERTEX
  8
0
 10
374.562412
 20
167.000000
 42
0.013162
  0
VERTEX
  8
0
 10
377.178000
 20
167.068866
 42
0.113040
  0
VERTEX
  8
0
 10
378.295512
 20
167.387517
 42
0.208145
  0
VERTEX
  8
0
 10
378.831199
 20
168.081358
 42
0.061839
  0
VERTEX
  8
0
 10
379.000000
 20
169.440983
 42
0.037634
  0
VERTEX
  8
0
 10
378.926158
 20
170.420660
 42
0.041396
  0
VERTEX
  8
0
 10
378.706250
 20
171.346475
 42
0.045439
  0
VERTEX
  8
0
 10
378.384508
 20
172.093337
 42
0.130646
  0
VERTEX
  8
0
 10
378.000000
 20
172.500000
 42
-0.170670
  0
VERTEX
  8
0
 10
377.612194
 20
172.980410
 42
-0.031293
  0
VERTEX
  8
0
 10
377.293750
 20
174.094150
 42
-0.030444
  0
VERTEX
  8
0
 10
377.073250
 20
175.504790
 42
-0.023552
  0
VERTEX
  8
0
 10
377.000000
 20
177.059017
 42
-0.023957
  0
VERTEX
  8
0
 10
377.072405
 20
178.569320
 42
-0.038191
  0
VERTEX
  8
0
 10
377.293750
 20
179.842336
 42
-0.044731
  0
VERTEX
  8
0
 10
377.613040
 20
180.751017
 42
-0.293924
  0
VERTEX
  8
0
 10
378.000000
 20
181.000000
 42
0.254951
  0
VERTEX
  8
0
 10
378.384262
 20
181.209557
 42
0.062710
  0
VERTEX
  8
0
 10
378.706250
 20
181.881250
 42
0.048861
  0
VERTEX
  8
0
 10
378.927234
 20
182.850749
 42
0.031626
  0
VERTEX
  8
0
 10
379.000000
 20
184.000000
 42
0.039197
  0
VERTEX
  8
0
 10
378.856946
 20
185.822000
 42
0.224101
  0
VERTEX
  8
0
 10
378.325514
 20
186.602763
 42
0.124344
  0
VERTEX
  8
0
 10
377.177880
 20
186.938786
 42
0.009354
  0
VERTEX
  8
0
 10
373.906162
 20
187.000000
 42
0.000000
  0
VERTEX
  8
0
 10
368.812324
 20
187.000000
 42
0.000000
  0
VERTEX
  8
0
 10
369.469189
 20
181.750000
 42
0.000000
  0
VERTEX
  8
0
 10
370.126053
 20
176.500000
 42
0.000000
  0
VERTEX
  8
0
 10
367.042798
 20
181.750000
 42
0.012617
  0
VERTEX
  8
0
 10
365.022095
 20
185.000072
 42
0.095920
  0
VERTEX
  8
0
 10
363.769338
 20
186.284951
 42
0.125051
  0
VERTEX
  8
0
 10
362.264780
 20
186.847819
 42
0.027301
  0
VERTEX
  8
0
 10
359.479772
 20
187.000000
 42
0.012814
  0
VERTEX
  8
0
 10
356.814415
 20
186.931681
 42
0.114942
  0
VERTEX
  8
0
 10
355.697977
 20
186.610484
 42
0.210035
  0
VERTEX
  8
0
 10
355.165044
 20
185.906133
 42
0.058486
  0
VERTEX
  8
0
 10
355.000000
 20
184.500000
 42
0.038131
  0
VERTEX
  8
0
 10
355.073116
 20
183.542644
 42
0.057076
  0
VERTEX
  8
0
 10
355.293750
 20
182.734375
 42
0.074992
  0
VERTEX
  8
0
 10
355.617064
 20
182.182831
 42
0.226478
  0
VERTEX
  8
0
 10
356.000000
 20
182.000000
 42
-0.322437
  0
VERTEX
  8
0
 10
356.389817
 20
181.719449
 42
-0.031449
  0
VERTEX
  8
0
 10
356.706250
 20
180.531250
 42
-0.030530
  0
VERTEX
  8
0
 10
356.927795
 20
178.916554
 42
-0.018830
  0
VERTEX
  8
0
 10
357.000000
 20
177.000000
 42
-0.013894
  0
VERTEX
  8
0
 10
356.931021
 20
174.518207
 42
-0.060177
  0
VERTEX
  8
0
 10
356.673762
 20
173.069806
 42
-0.127181
  0
VERTEX
  8
0
 10
356.198246
 20
172.292468
 42
-0.194602
  0
VERTEX
  8
0
 10
355.475249
 20
172.000000
 42
-0.136450
  0
VERTEX
  8
0
 10
354.822013
 20
172.181650
 42
-0.062060
  0
VERTEX
  8
0
 10
354.119185
 20
172.734375
 42
-0.054776
  0
VERTEX
  8
0
 10
353.476685
 20
173.543720
 42
-0.049595
  0
VERTEX
  8
0
 10
353.000000
 20
174.500000
 42
0.041109
  0
VERTEX
  8
0
 10
352.542144
 20
175.458847
 42
0.048452
  0
VERTEX
  8
0
 10
351.954253
 20
176.274558
 42
0.055315
  0
VERTEX
  8
0
 10
351.331321
 20
176.842163
 42
0.152310
  0
VERTEX
  8
0
 10
350.774751
 20
177.030409
 42
-0.122530
  0
VERTEX
  8
0
 10
350.422286
 20
177.127082
 42
-0.389128
  0
VERTEX
  8
0
 10
350.352571
 20
177.339546
 42
-0.129203
  0
VERTEX
  8
0
 10
350.618139
 20
177.666528
 42
-0.026075
  0
VERTEX
  8
0
 10
351.250000
 20
178.080099
 42
0.081903
  0
VERTEX
  8
0
 10
351.918444
 20
178.632751
 42
0.055633
  0
VERTEX
  8
0
 10
352.481439
 20
179.446307
 42
0.054687
  0
VERTEX
  8
0
 10
352.860703
 20
180.382432
 42
0.070774
  0
VERTEX
  8
0
 10
352.984687
 20
181.299690
 42
0.083760
  0
VERTEX
  8
0
 10
352.511970
 20
183.987566
 42
0.182148
  0
VERTEX
  8
0
 10
351.180083
 20
185.563824
 42
0.099932
  0
VERTEX
  8
0
 10
348.504237
 20
186.420035
 42
0.016276
  0
VERTEX
  8
0
 10
343.042242
 20
186.846552
 42
0.000000
  0
VERTEX
  8
0
 10
335.000000
 20
187.211770
 42
0.000000
  0
SEQEND
  0
POLYLINE
  8
0
 66
1
 70
1
  0
VERTEX
  8
0
 10
346.000000
 20
180.000000
 42
-0.099038
  0
VERTEX
  8
0
 10
345.923658
 20
179.618362
 42
-0.097945
  0
VERTEX
  8
0
 10
345.706250
 20
179.293750
 42
-0.097945
  0
VERTEX
  8
0
 10
345.381638
 20
179.076342
 42
-0.099038
  0
VERTEX
  8
0
 10
345.000000
 20
179.000000
 42
-0.099038
  0
VERTEX
  8
0
 10
344.618362
 20
179.076342
 42
-0.097945
  0
VERTEX
  8
0
 10
344.293750
 20
179.293750
 42
-0.097945
  0
VERTEX
  8
0
 10
344.076342
 20
179.618362
 42
-0.099038
  0
VERTEX
  8
0
 10
344.000000
 20
180.000000
 42
-0.099038
  0
VERTEX
  8
0
 10
344.076342
 20
180.381638
 42
-0.097945
  0
VERTEX
  8
0
 10
344.293750
 20
180.706250
 42
-0.097945
  0
VERTEX
  8
0
 10
344.618362
 20
180.923658
 42
-0.099038
  0
VERTEX
  8
0
 10
345.000000
 20
181.000000
 42
-0.099038
  0
VERTEX
  8
0
 10
345.381638
 20
180.923658
 42
-0.097945
  0
VERTEX
  8
0
 10
345.706250
 20
180.706250
 42
-0.097945
  0
VERTEX
  8
0
 10
345.923658
 20
180.381638
 42
-0.099038
  0
SEQEND
  0
POLYLINE
  8
0
 66
1
 70
1
  0
VERTEX
  8
0
 10
383.171872
 20
178.649753
 42
0.006557
  0
VERTEX
  8
0
 10
380.435745
 20
171.151895
 42
0.115734
  0
VERTEX
  8
0
 10
380.163539
 20
168.601991
 42
0.317195
  0
VERTEX
  8
0
 10
381.289254
 20
167.365174
 42
0.054573
  0
VERTEX
  8
0
 10
384.625000
 20
167.000000
 42
0.008868
  0
VERTEX
  8
0
 10
387.661499
 20
167.053860
 42
0.152425
  0
VERTEX
  8
0
 10
388.588637
 20
167.379730
 42
0.259138
  0
VERTEX
  8
0
 10
388.917618
 20
168.110195
 42
0.028367
  0
VERTEX
  8
0
 10
388.650000
 20
170.000000
 42
-0.021161
  0
VERTEX
  8
0
 10
388.395029
 20
171.630930
 42
-0.136469
  0
VERTEX
  8
0
 10
388.525343
 20
172.446203
 42
-0.222370
  0
VERTEX
  8
0
 10
389.019865
 20
172.865628
 42
-0.066547
  0
VERTEX
  8
0
 10
390.025000
 20
173.000000
 42
-0.083621
  0
VERTEX
  8
0
 10
390.983403
 20
172.838586
 42
-0.165198
  0
VERTEX
  8
0
 10
391.585417
 20
172.370253
 42
-0.115289
  0
VERTEX
  8
0
 10
391.907949
 20
171.493881
 42
-0.030780
  0
VERTEX
  8
0
 10
392.000000
 20
170.000000
 42
0.033956
  0
VERTEX
  8
0
 10
392.120733
 20
168.224263
 42
0.200505
  0
VERTEX
  8
0
 10
392.583333
 20
167.437500
 42
0.146160
  0
VERTEX
  8
0
 10
393.561635
 20
167.076799
 42
0.015744
  0
VERTEX
  8
0
 10
396.000000
 20
167.000000
 42
0.074756
  0
VERTEX
  8
0
 10
398.837246
 20
167.426584
 42
0.308881
  0
VERTEX
  8
0
 10
399.863002
 20
168.712944
 42
0.102259
  0
VERTEX
  8
0
 10
399.513887
 20
171.387066
 42
0.006817
  0
VERTEX
  8
0
 10
396.867249
 20
178.699664
 42
0.000000
  0
VERTEX
  8
0
 10
393.734498
 20
187.000000
 42
0.000000
  0
VERTEX
  8
0
 10
390.039121
 20
187.000000
 42
0.000000
  0
VERTEX
  8
0
 10
386.343744
 20
187.000000
 42
0.000000
  0
SEQEND
  0
POLYLINE
  8
0
 66
1
 70
1
  0
VERTEX
  8
0
 10
401.000000
 20
184.500000
 42
0.038131
  0
VERTEX
  8
0
 10
401.073116
 20
183.542644
 42
0.057076
  0
VERTEX
  8
0
 10
401.293750
 20
182.734375
 42
0.074992
  0
VERTEX
  8
0
 10
401.617064
 20
182.182831
 42
0.226478
  0
VERTEX
  8
0
 10
402.000000
 20
182.000000
 42
-0.322437
  0
VERTEX
  8
0
 10
402.389817
 20
181.719449
 42
-0.031449
  0
VERTEX
  8
0
 10
402.706250
 20
180.531250
 42
-0.030530
  0
VERTEX
  8
0
 10
402.927795
 20
178.916554
 42
-0.018830
  0
VERTEX
  8
0
 10
403.000000
 20
177.000000
 42
-0.018830
  0
VERTEX
  8
0
 10
402.927795
 20
175.083446
 42
-0.030530
  0
VERTEX
  8
0
 10
402.706250
 20
173.468750
 42
-0.031449
  0
VERTEX
  8
0
 10
402.389817
 20
172.280551
 42
-0.322437
  0
VERTEX
  8
0
 10
402.000000
 20
172.000000
 42
0.226478
  0
VERTEX
  8
0
 10
401.617064
 20
171.817169
 42
0.074992
  0
VERTEX
  8
0
 10
401.293750
 20
171.265625
 42
0.057076
  0
VERTEX
  8
0
 10
401.073116
 20
170.457356
 42
0.038131
  0
VERTEX
  8
0
 10
401.000000
 20
169.500000
 42
0.098988
  0
VERTEX
  8
0
 10
401.289885
 20
168.050108
 42
0.226266
  0
VERTEX
  8
0
 10
402.100000
 20
167.323529
 42
0.067556
  0
VERTEX
  8
0
 10
403.927165
 20
167.045242
 42
0.004059
  0
VERTEX
  8
0
 10
409.500000
 20
167.000000
 42
0.000000
  0
VERTEX
  8
0
 10
418.000000
 20
167.000000
 42
0.000000
  0
VERTEX
  8
0
 10
418.000000
 20
171.000000
 42
0.016149
  0
VERTEX
  8
0
 10
417.925001
 20
173.321544
 42
0.124134
  0
VERTEX
  8
0
 10
417.593750
 20
174.350000
 42
0.201266
  0
VERTEX
  8
0
 10
416.888366
 20
174.848244
 42
0.054490
  0
VERTEX
  8
0
 10
415.500000
 20
175.000000
 42
0.047160
  0
VERTEX
  8
0
 10
414.456621
 20
174.901370
 42
0.088208
  0
VERTEX
  8
0
 10
413.666667
 20
174.600000
 42
0.118484
  0
VERTEX
  8
0
 10
413.177821
 20
174.119980
 42
0.140575
  0
VERTEX
  8
0
 10
413.000000
 20
173.500000
 42
-0.108988
  0
VERTEX
  8
0
 10
412.873761
 20
172.927735
 42
-0.099769
  0
VERTEX
  8
0
 10
412.516271
 20
172.440625
 42
-0.095322
  0
VERTEX
  8
0
 10
411.981963
 20
172.113970
 42
-0.089907
  0
VERTEX
  8
0
 10
411.353264
 20
172.000000
 42
-0.211988
  0
VERTEX
  8
0
 10
410.529913
 20
172.365507
 42
-0.151389
  0
VERTEX
  8
0
 10
410.099532
 20
173.292368
 42
-0.048871
  0
VERTEX
  8
0
 10
410.028928
 20
175.222790
 42
-0.005806
  0
VERTEX
  8
0
 10
410.340510
 20
179.500000
 42
0.000000
  0
VERTEX
  8
0
 10
410.974492
 20
187.000000
 42
0.000000
  0
VERTEX
  8
0
 10
405.987246
 20
187.000000
 42
0.010375
  0
VERTEX
  8
0
 10
402.956747
 20
186.937111
 42
0.106189
  0
VERTEX
  8
0
 10
401.748725
 20
186.624680
 42
0.216877
  0
VERTEX
  8
0
 10
401.179707
 20
185.919566
 42
0.063045
  0
SEQEND
  0
POLYLINE
  8
0
 66
1
 70
1
  0
VERTEX
  8
0
 10
427.000000
 20
184.850247
 42
0.065166
  0
VERTEX
  8
0
 10
427.167901
 20
183.567461
 42
0.008268
  0
VERTEX
  8
0
 10
427.931737
 20
180.879099
 42
0.009581
  0
VERTEX
  8
0
 10
428.957350
 20
177.704975
 42
0.007833
  0
VERTEX
  8
0
 10
430.171872
 20
174.350247
 42
0.005707
  0
VERTEX
  8
0
 10
432.262751
 20
169.029575
 42
0.068471
  0
VERTEX
  8
0
 10
433.360913
 20
167.123011
 42
0.160869
  0
VERTEX
  8
0
 10
434.614482
 20
166.279159
 42
0.068477
  0
VERTEX
  8
0
 10
436.643280
 20
166.000000
 42
0.033504
  0
VERTEX
  8
0
 10
438.485895
 20
166.123609
 42
0.133610
  0
VERTEX
  8
0
 10
439.519431
 20
166.560109
 42
0.131601
  0
VERTEX
  8
0
 10
440.197939
 20
167.464151
 42
0.032108
  0
VERTEX
  8
0
 10
440.785686
 20
169.250000
 42
0.000000
  0
VERTEX
  8
0
 10
441.628556
 20
172.500000
 42
0.000000
  0
VERTEX
  8
0
 10
442.785104
 20
169.184466
 42
0.027872
  0
VERTEX
  8
0
 10
443.546561
 20
167.339159
 42
0.131253
  0
VERTEX
  8
0
 10
444.285506
 20
166.476142
 42
0.141521
  0
VERTEX
  8
0
 10
445.325566
 20
166.130894
 42
0.034321
  0
VERTEX
  8
0
 10
447.154423
 20
166.184466
 42
0.076074
  0
VERTEX
  8
0
 10
449.092378
 20
166.678799
 42
0.133742
  0
VERTEX
  8
0
 10
450.382106
 20
167.695386
 42
0.060097
  0
VERTEX
  8
0
 10
451.572450
 20
169.787322
 42
0.006358
  0
VERTEX
  8
0
 10
453.682069
 20
175.000000
 42
0.006844
  0
VERTEX
  8
0
 10
456.537417
 20
182.628513
 42
0.113488
  0
VERTEX
  8
0
 10
456.855833
 20
185.303863
 42
0.316535
  0
VERTEX
  8
0
 10
455.714205
 20
186.603772
 42
0.059325
  0
VERTEX
  8
0
 10
452.386501
 20
187.000000
 42
0.000000
  0
VERTEX
  8
0
 10
447.773001
 20
187.000000
 42
0.000000
  0
VERTEX
  8
0
 10
448.249209
 20
183.755389
 42
-0.058129
  0
VERTEX
  8
0
 10
448.331454
 20
180.977734
 42
-0.044971
  0
VERTEX
  8
0
 10
447.799704
 20
177.994770
 42
-0.052407
  0
VERTEX
  8
0
 10
446.930419
 20
175.760246
 42
-0.437203
  0
VERTEX
  8
0
 10
445.997771
 20
175.501378
 42
-0.214792
  0
VERTEX
  8
0
 10
445.713548
 20
175.922160
 42
-0.027698
  0
VERTEX
  8
0
 10
445.585133
 20
177.028744
 42
-0.028325
  0
VERTEX
  8
0
 10
445.580205
 20
178.431750
 42
-0.020055
  0
VERTEX
  8
0
 10
445.726851
 20
180.000191
 42
0.000000
  0
VERTEX
  8
0
 10
446.263338
 20
184.000000
 42
0.000000
  0
VERTEX
  8
0
 10
442.131669
 20
184.000000
 42
0.000000
  0
VERTEX
  8
0
 10
438.000000
 20
184.000000
 42
0.000000
  0
VERTEX
  8
0
 10
438.000000
 20
179.300000
 42
-0.008935
  0
VERTEX
  8
0
 10
437.956259
 20
176.852566
 42
-0.078138
  0
VERTEX
  8
0
 10
437.750029
 20
175.789971
 42
-0.358252
  0
VERTEX
  8
0
 10
437.344092
 20
175.549323
 42
-0.159514
  0
VERTEX
  8
0
 10
436.750000
 20
175.850544
 42
-0.122088
  0
VERTEX
  8
0
 10
436.258911
 20
176.665718
 42
-0.033306
  0
VERTEX
  8
0
 10
435.909865
 20
178.138873
 42
-0.030165
  0
VERTEX
  8
0
 10
435.713809
 20
179.985945
 42
-0.022007
  0
VERTEX
  8
0
 10
435.710856
 20
182.050544
 42
0.000000
  0
VERTEX
  8
0
 10
435.921713
 20
187.000000
 42
0.000000
  0
VERTEX
  8
0
 10
431.460856
 20
187.000000
 42
0.013704
  0
VERTEX
  8
0
 10
428.939492
 20
186.930882
 42
0.098886
  0
VERTEX
  8
0
 10
427.768764
 20
186.629521
 42
0.197538
  0
VERTEX
  8
0
 10
427.197085
 20
185.992854
 42
0.085611
  0
SEQEND
  0
POLYLINE
  8
0
 66
1
 70
1
  0
VERTEX
  8
0
 10
457.250000
 20
178.719064
 42
0.007035
  0
VERTEX
  8
0
 10
454.447757
 20
171.279298
 42
0.116011
  0
VERTEX
  8
0
 10
454.144901
 20
168.661111
 42
0.316193
  0
VERTEX
  8
0
 10
455.283384
 20
167.384636
 42
0.057560
  0
VERTEX
  8
0
 10
458.613499
 20
167.000000
 42
0.009573
  0
VERTEX
  8
0
 10
461.607175
 20
167.057320
 42
0.147300
  0
VERTEX
  8
0
 10
462.572183
 20
167.388707
 42
0.247392
  0
VERTEX
  8
0
 10
462.944040
 20
168.134616
 42
0.030798
  0
VERTEX
  8
0
 10
462.786692
 20
170.000000
 42
-0.023549
  0
VERTEX
  8
0
 10
462.624864
 20
171.635295
 42
-0.143587
  0
VERTEX
  8
0
 10
462.819464
 20
172.452861
 42
-0.208613
  0
VERTEX
  8
0
 10
463.380572
 20
172.871126
 42
-0.057373
  0
VERTEX
  8
0
 10
464.500000
 20
173.000000
 42
-0.057373
  0
VERTEX
  8
0
 10
465.619428
 20
172.871126
 42
-0.208613
  0
VERTEX
  8
0
 10
466.180536
 20
172.452861
 42
-0.143587
  0
VERTEX
  8
0
 10
466.375136
 20
171.635295
 42
-0.023549
  0
VERTEX
  8
0
 10
466.213308
 20
170.000000
 42
0.028437
  0
VERTEX
  8
0
 10
466.048706
 20
168.152724
 42
0.233603
  0
VERTEX
  8
0
 10
466.388625
 20
167.405567
 42
0.160364
  0
VERTEX
  8
0
 10
467.278439
 20
167.063673
 42
0.012205
  0
VERTEX
  8
0
 10
469.886501
 20
167.000000
 42
0.015772
  0
VERTEX
  8
0
 10
472.208169
 20
167.073251
 42
0.109659
  0
VERTEX
  8
0
 10
473.293272
 20
167.387072
 42
0.197192
  0
VERTEX
  8
0
 10
473.826643
 20
168.044710
 42
0.072541
  0
VERTEX
  8
0
 10
474.005377
 20
169.250000
 42
0.066270
  0
VERTEX
  8
0
 10
473.834468
 20
170.557701
 42
0.009858
  0
VERTEX
  8
0
 10
473.093326
 20
173.115625
 42
0.010951
  0
VERTEX
  8
0
 10
472.086291
 20
176.117839
 42
0.009236
  0
VERTEX
  8
0
 10
470.892974
 20
179.250000
 42
0.006197
  0
VERTEX
  8
0
 10
468.801558
 20
184.268186
 42
0.077629
  0
VERTEX
  8
0
 10
467.708373
 20
186.003276
 42
0.163587
  0
VERTEX
  8
0
 10
466.408109
 20
186.763950
 42
0.051551
  0
VERTEX
  8
0
 10
464.137598
 20
186.996387
 42
0.054055
  0
VERTEX
  8
0
 10
461.856543
 20
186.746766
 42
0.166457
  0
VERTEX
  8
0
 10
460.548845
 20
185.950588
 42
0.074550
  0
VERTEX
  8
0
 10
459.444773
 20
184.130198
 42
0.005517
  0
SEQEND
  0
POLYLINE
  8
0
 66
1
 70
1
  0
VERTEX
  8
0
 10
475.000000
 20
184.500000
 42
0.038131
  0
VERTEX
  8
0
 10
475.073116
 20
183.542644
 42
0.057076
  0
VERTEX
  8
0
 10
475.293750
 20
182.734375
 42
0.074992
  0
VERTEX
  8
0
 10
475.617064
 20
182.182831
 42
0.226478
  0
VERTEX
  8
0
 10
476.000000
 20
182.000000
 42
-0.322437
  0
VERTEX
  8
0
 10
476.389817
 20
181.719449
 42
-0.031449
  0
VERTEX
  8
0
 10
476.706250
 20
180.531250
 42
-0.030530
  0
VERTEX
  8
0
 10
476.927795
 20
178.916554
 42
-0.018830
  0
VERTEX
  8
0
 10
477.000000
 20
177.000000
 42
-0.018830
  0
VERTEX
  8
0
 10
476.927795
 20
175.083446
 42
-0.030530
  0
VERTEX
  8
0
 10
476.706250
 20
173.468750
 42
-0.031449
  0
VERTEX
  8
0
 10
476.389817
 20
172.280551
 42
-0.322437
  0
VERTEX
  8
0
 10
476.000000
 20
172.000000
 42
0.226478
  0
VERTEX
  8
0
 10
475.617064
 20
171.817169
 42
0.074992
  0
VERTEX
  8
0
 10
475.293750
 20
171.265625
 42
0.057076
  0
VERTEX
  8
0
 10
475.073116
 20
170.457356
 42
0.038131
  0
VERTEX
  8
0
 10
475.000000
 20
169.500000
 42
0.067911
  0
VERTEX
  8
0
 10
475.195020
 20
168.070774
 42
0.221767
  0
VERTEX
  8
0
 10
475.800000
 20
167.363636
 42
0.098356
  0
VERTEX
  8
0
 10
477.099576
 20
167.058601
 42
0.008616
  0
VERTEX
  8
0
 10
480.500000
 20
167.000000
 42
0.008616
  0
VERTEX
  8
0
 10
483.900424
 20
167.058601
 42
0.098356
  0
VERTEX
  8
0
 10
485.200000
 20
167.363636
 42
0.221767
  0
VERTEX
  8
0
 10
485.804980
 20
168.070774
 42
0.067911
  0
VERTEX
  8
0
 10
486.000000
 20
169.500000
 42
0.038131
  0
VERTEX
  8
0
 10
485.926884
 20
170.457356
 42
0.057076
  0
VERTEX
  8
0
 10
485.706250
 20
171.265625
 42
0.074992
  0
VERTEX
  8
0
 10
485.382936
 20
171.817169
 42
0.226478
  0
VERTEX
  8
0
 10
485.000000
 20
172.000000
 42
-0.148195
  0
VERTEX
  8
0
 10
484.618646
 20
172.115568
 42
-0.098894
  0
VERTEX
  8
0
 10
484.293750
 20
172.440625
 42
-0.082425
  0
VERTEX
  8
0
 10
484.074694
 20
172.926543
 42
-0.064853
  0
VERTEX
  8
0
 10
484.000000
 20
173.500000
 42
-0.117669
  0
VERTEX
  8
0
 10
484.285277
 20
174.695412
 42
-0.413582
  0
VERTEX
  8
0
 10
484.962652
 20
174.918350
 42
-0.165604
  0
VERTEX
  8
0
 10
485.827871
 20
174.037067
 42
-0.050560
  0
VERTEX
  8
0
 10
486.471986
 20
172.255594
 42
0.042424
  0
VERTEX
  8
0
 10
487.362399
 20
169.661979
 42
0.112520
  0
VERTEX
  8
0
 10
488.525332
 20
168.098721
 42
0.122389
  0
VERTEX
  8
0
 10
490.184875
 20
167.269181
 42
0.055048
  0
VERTEX
  8
0
 10
492.622445
 20
167.000000
 42
0.023160
  0
VERTEX
  8
0
 10
494.501371
 20
167.087079
 42
0.136988
  0
VERTEX
  8
0
 10
495.412244
 20
167.435045
 42
0.185590
  0
VERTEX
  8
0
 10
495.864396
 20
168.145763
 42
0.049942
  0
VERTEX
  8
0
 10
496.000000
 20
169.500000
 42
0.038131
  0
VERTEX
  8
0
 10
495.926884
 20
170.457356
 42
0.057076
  0
VERTEX
  8
0
 10
495.706250
 20
171.265625
 42
0.074992
  0
VERTEX
  8
0
 10
495.382936
 20
171.817169
 42
0.226478
  0
VERTEX
  8
0
 10
495.000000
 20
172.000000
 42
-0.116378
  0
VERTEX
  8
0
 10
494.618563
 20
172.090001
 42
-0.100507
  0
VERTEX
  8
0
 10
494.293750
 20
172.344057
 42
-0.093099
  0
VERTEX
  8
0
 10
494.075713
 20
172.723964
 42
-0.084037
  0
VERTEX
  8
0
 10
494.000000
 20
173.171259
 42
0.091083
  0
VERTEX
  8
0
 10
493.896084
 20
173.736970
 42
0.031783
  0
VERTEX
  8
0
 10
493.551964
 20
174.493535
 42
0.030320
  0
VERTEX
  8
0
 10
493.058479
 20
175.296552
 42
0.030985
  0
VERTEX
  8
0
 10
492.474772
 20
176.027877
 42
-0.024584
  0
VERTEX
  8
0
 10
491.651231
 20
177.033041
 42
-0.160673
  0
VERTEX
  8
0
 10
491.449543
 20
177.644470
 42
-0.186416
  0
VERTEX
  8
0
 10
491.666378
 20
178.205847
 42
-0.035232
  0
VERTEX
  8
0
 10
492.474772
 20
178.979062
 42
0.111574
  0
VERTEX
  8
0
 10
493.626898
 20
180.476370
 42
0.136097
  0
VERTEX
  8
0
 10
493.912945
 20
182.214810
 42
0.125874
  0
VERTEX
  8
0
 10
493.262355
 20
183.954419
 42
0.088095
  0
VERTEX
  8
0
 10
491.777494
 20
185.443296
 42
0.077692
  0
VERTEX
  8
0
 10
490.356363
 20
186.140221
 42
0.034625
  0
VERTEX
  8
0
 10
488.321605
 20
186.620175
 42
0.027133
  0
VERTEX
  8
0
 10
485.665011
 20
186.908658
 42
0.013480
  0
VERTEX
  8
0
 10
482.277494
 20
187.000000
 42
0.005241
  0
VERTEX
  8
0
 10
477.590862
 20
186.950876
 42
0.077638
  0
VERTEX
  8
0
 10
475.977749
 20
186.664119
 42
0.228011
  0
VERTEX
  8
0
 10
475.250556
 20
185.945810
 42
0.086008
  0
SEQEND
  0
POLYLINE
  8
0
 66
1
 70
1
  0
VERTEX
  8
0
 10
486.150000
 20
180.500000
 42
-0.102038
  0
VERTEX
  8
0
 10
486.069583
 20
180.110048
 42
-0.070382
  0
VERTEX
  8
0
 10
485.834219
 20
179.723802
 42
-0.066918
  0
VERTEX
  8
0
 10
485.485911
 20
179.399741
 42
-0.073624
  0
VERTEX
  8
0
 10
485.075000
 20
179.191667
 42
-0.159683
  0
VERTEX
  8
0
 10
484.666526
 20
179.189601
 42
-0.143818
  0
VERTEX
  8
0
 10
484.315781
 20
179.428177
 42
-0.107546
  0
VERTEX
  8
0
 10
484.079656
 20
179.888977
 42
-0.064908
  0
VERTEX
  8
0
 10
484.000000
 20
180.500000
 42
-0.064908
  0
VERTEX
  8
0
 10
484.079656
 20
181.111023
 42
-0.107546
  0
VERTEX
  8
0
 10
484.315781
 20
181.571823
 42
-0.143818
  0
VERTEX
  8
0
 10
484.666526
 20
181.810399
 42
-0.159683
  0
VERTEX
  8
0
 10
485.075000
 20
181.808333
 42
-0.073624
  0
VERTEX
  8
0
 10
485.485911
 20
181.600259
 42
-0.066918
  0
VERTEX
  8
0
 10
485.834219
 20
181.276198
 42
-0.070382
  0
VERTEX
  8
0
 10
486.069583
 20
180.889952
 42
-0.102038
  0
SEQEND
  0
ENDSEC
  0
EOF
